<svg width="1790" height="1568" viewBox="0 0 1790 1568" fill="none" xmlns="http://www.w3.org/2000/svg">
<g clip-path="url(#clip0_102_285)">
<rect width="1789.44" height="1567" fill="#101010"/>
<rect x="-83.867" y="0.825684" width="130.458" height="130.458" stroke="white" stroke-opacity="0.03" stroke-width="1.65137"/>
<rect x="46.5911" y="0.825684" width="130.458" height="130.458" stroke="white" stroke-opacity="0.03" stroke-width="1.65137"/>
<rect x="177.049" y="0.825684" width="130.458" height="130.458" stroke="white" stroke-opacity="0.03" stroke-width="1.65137"/>
<rect x="307.507" y="0.825684" width="130.458" height="130.458" stroke="white" stroke-opacity="0.03" stroke-width="1.65137"/>
<rect x="437.965" y="0.825684" width="130.458" height="130.458" stroke="white" stroke-opacity="0.03" stroke-width="1.65137"/>
<rect x="568.424" y="0.825684" width="130.458" height="130.458" stroke="white" stroke-opacity="0.03" stroke-width="1.65137"/>
<rect x="698.882" y="0.825684" width="130.458" height="130.458" stroke="white" stroke-opacity="0.03" stroke-width="1.65137"/>
<rect x="829.34" y="0.825684" width="130.458" height="130.458" stroke="white" stroke-opacity="0.03" stroke-width="1.65137"/>
<rect x="959.798" y="0.825684" width="130.458" height="130.458" stroke="white" stroke-opacity="0.03" stroke-width="1.65137"/>
<rect x="1090.26" y="0.825684" width="130.458" height="130.458" stroke="white" stroke-opacity="0.03" stroke-width="1.65137"/>
<rect x="1220.71" y="0.825684" width="130.458" height="130.458" stroke="white" stroke-opacity="0.03" stroke-width="1.65137"/>
<rect x="1351.17" y="0.825684" width="130.458" height="130.458" stroke="white" stroke-opacity="0.03" stroke-width="1.65137"/>
<rect x="1481.63" y="0.825684" width="130.458" height="130.458" stroke="white" stroke-opacity="0.03" stroke-width="1.65137"/>
<rect x="1612.09" y="0.825684" width="130.458" height="130.458" stroke="white" stroke-opacity="0.03" stroke-width="1.65137"/>
<rect x="1742.55" y="0.825684" width="130.458" height="130.458" stroke="white" stroke-opacity="0.03" stroke-width="1.65137"/>
<rect x="-83.867" y="131.284" width="130.458" height="130.458" stroke="white" stroke-opacity="0.03" stroke-width="1.65137"/>
<rect x="46.5911" y="131.284" width="130.458" height="130.458" stroke="white" stroke-opacity="0.03" stroke-width="1.65137"/>
<rect x="177.049" y="131.284" width="130.458" height="130.458" stroke="white" stroke-opacity="0.03" stroke-width="1.65137"/>
<rect x="307.507" y="131.284" width="130.458" height="130.458" stroke="white" stroke-opacity="0.03" stroke-width="1.65137"/>
<rect x="437.965" y="131.284" width="130.458" height="130.458" stroke="white" stroke-opacity="0.03" stroke-width="1.65137"/>
<rect x="568.423" y="131.284" width="130.458" height="130.458" stroke="white" stroke-opacity="0.03" stroke-width="1.65137"/>
<rect x="698.882" y="131.284" width="130.458" height="130.458" stroke="white" stroke-opacity="0.03" stroke-width="1.65137"/>
<rect x="829.34" y="131.284" width="130.458" height="130.458" stroke="white" stroke-opacity="0.03" stroke-width="1.65137"/>
<rect x="959.798" y="131.284" width="130.458" height="130.458" stroke="white" stroke-opacity="0.03" stroke-width="1.65137"/>
<rect x="1090.26" y="131.284" width="130.458" height="130.458" stroke="white" stroke-opacity="0.03" stroke-width="1.65137"/>
<rect x="1220.71" y="131.284" width="130.458" height="130.458" stroke="white" stroke-opacity="0.03" stroke-width="1.65137"/>
<rect x="1351.17" y="131.284" width="130.458" height="130.458" stroke="white" stroke-opacity="0.03" stroke-width="1.65137"/>
<rect x="1481.63" y="131.284" width="130.458" height="130.458" stroke="white" stroke-opacity="0.03" stroke-width="1.65137"/>
<rect x="1612.09" y="131.284" width="130.458" height="130.458" stroke="white" stroke-opacity="0.03" stroke-width="1.65137"/>
<rect x="1742.55" y="131.284" width="130.458" height="130.458" stroke="white" stroke-opacity="0.03" stroke-width="1.65137"/>
<rect x="-83.867" y="261.742" width="130.458" height="130.458" stroke="white" stroke-opacity="0.03" stroke-width="1.65137"/>
<rect x="46.5911" y="261.742" width="130.458" height="130.458" stroke="white" stroke-opacity="0.03" stroke-width="1.65137"/>
<rect x="177.049" y="261.742" width="130.458" height="130.458" stroke="white" stroke-opacity="0.03" stroke-width="1.65137"/>
<rect x="307.507" y="261.742" width="130.458" height="130.458" stroke="white" stroke-opacity="0.03" stroke-width="1.65137"/>
<rect x="437.965" y="261.742" width="130.458" height="130.458" stroke="white" stroke-opacity="0.03" stroke-width="1.65137"/>
<rect x="568.423" y="261.742" width="130.458" height="130.458" stroke="white" stroke-opacity="0.03" stroke-width="1.65137"/>
<rect x="698.882" y="261.742" width="130.458" height="130.458" stroke="white" stroke-opacity="0.03" stroke-width="1.65137"/>
<rect x="829.34" y="261.742" width="130.458" height="130.458" stroke="white" stroke-opacity="0.03" stroke-width="1.65137"/>
<rect x="959.798" y="261.742" width="130.458" height="130.458" stroke="white" stroke-opacity="0.03" stroke-width="1.65137"/>
<rect x="1090.26" y="261.742" width="130.458" height="130.458" stroke="white" stroke-opacity="0.03" stroke-width="1.65137"/>
<rect x="1220.71" y="261.742" width="130.458" height="130.458" stroke="white" stroke-opacity="0.03" stroke-width="1.65137"/>
<rect x="1351.17" y="261.742" width="130.458" height="130.458" stroke="white" stroke-opacity="0.03" stroke-width="1.65137"/>
<rect x="1481.63" y="261.742" width="130.458" height="130.458" stroke="white" stroke-opacity="0.03" stroke-width="1.65137"/>
<rect x="1612.09" y="261.742" width="130.458" height="130.458" stroke="white" stroke-opacity="0.03" stroke-width="1.65137"/>
<rect x="1742.55" y="261.742" width="130.458" height="130.458" stroke="white" stroke-opacity="0.03" stroke-width="1.65137"/>
<rect x="-83.867" y="392.2" width="130.458" height="130.458" stroke="white" stroke-opacity="0.03" stroke-width="1.65137"/>
<rect x="46.5911" y="392.2" width="130.458" height="130.458" stroke="white" stroke-opacity="0.03" stroke-width="1.65137"/>
<rect x="177.049" y="392.2" width="130.458" height="130.458" stroke="white" stroke-opacity="0.03" stroke-width="1.65137"/>
<rect x="307.507" y="392.2" width="130.458" height="130.458" stroke="white" stroke-opacity="0.03" stroke-width="1.65137"/>
<rect x="437.965" y="392.2" width="130.458" height="130.458" stroke="white" stroke-opacity="0.03" stroke-width="1.65137"/>
<rect x="568.423" y="392.2" width="130.458" height="130.458" stroke="white" stroke-opacity="0.03" stroke-width="1.65137"/>
<rect x="698.882" y="392.2" width="130.458" height="130.458" stroke="white" stroke-opacity="0.03" stroke-width="1.65137"/>
<rect x="829.34" y="392.2" width="130.458" height="130.458" stroke="white" stroke-opacity="0.03" stroke-width="1.65137"/>
<rect x="959.798" y="392.2" width="130.458" height="130.458" stroke="white" stroke-opacity="0.03" stroke-width="1.65137"/>
<rect x="1090.26" y="392.2" width="130.458" height="130.458" stroke="white" stroke-opacity="0.03" stroke-width="1.65137"/>
<rect x="1220.71" y="392.2" width="130.458" height="130.458" stroke="white" stroke-opacity="0.03" stroke-width="1.65137"/>
<rect x="1351.17" y="392.2" width="130.458" height="130.458" stroke="white" stroke-opacity="0.03" stroke-width="1.65137"/>
<rect x="1481.63" y="392.2" width="130.458" height="130.458" stroke="white" stroke-opacity="0.03" stroke-width="1.65137"/>
<rect x="1612.09" y="392.2" width="130.458" height="130.458" stroke="white" stroke-opacity="0.03" stroke-width="1.65137"/>
<rect x="1742.55" y="392.2" width="130.458" height="130.458" stroke="white" stroke-opacity="0.03" stroke-width="1.65137"/>
<rect x="-83.867" y="522.658" width="130.458" height="130.458" stroke="white" stroke-opacity="0.03" stroke-width="1.65137"/>
<rect x="46.5911" y="522.658" width="130.458" height="130.458" stroke="white" stroke-opacity="0.03" stroke-width="1.65137"/>
<rect x="177.049" y="522.658" width="130.458" height="130.458" stroke="white" stroke-opacity="0.03" stroke-width="1.65137"/>
<rect x="307.507" y="522.658" width="130.458" height="130.458" stroke="white" stroke-opacity="0.03" stroke-width="1.65137"/>
<rect x="437.965" y="522.658" width="130.458" height="130.458" stroke="white" stroke-opacity="0.03" stroke-width="1.65137"/>
<rect x="568.423" y="522.658" width="130.458" height="130.458" stroke="white" stroke-opacity="0.03" stroke-width="1.65137"/>
<rect x="698.882" y="522.658" width="130.458" height="130.458" stroke="white" stroke-opacity="0.03" stroke-width="1.65137"/>
<rect x="829.34" y="522.658" width="130.458" height="130.458" stroke="white" stroke-opacity="0.03" stroke-width="1.65137"/>
<rect x="959.798" y="522.658" width="130.458" height="130.458" stroke="white" stroke-opacity="0.03" stroke-width="1.65137"/>
<rect x="1090.26" y="522.658" width="130.458" height="130.458" stroke="white" stroke-opacity="0.03" stroke-width="1.65137"/>
<rect x="1220.71" y="522.658" width="130.458" height="130.458" stroke="white" stroke-opacity="0.03" stroke-width="1.65137"/>
<rect x="1351.17" y="522.658" width="130.458" height="130.458" stroke="white" stroke-opacity="0.03" stroke-width="1.65137"/>
<rect x="1481.63" y="522.658" width="130.458" height="130.458" stroke="white" stroke-opacity="0.03" stroke-width="1.65137"/>
<rect x="1612.09" y="522.658" width="130.458" height="130.458" stroke="white" stroke-opacity="0.03" stroke-width="1.65137"/>
<rect x="1742.55" y="522.658" width="130.458" height="130.458" stroke="white" stroke-opacity="0.03" stroke-width="1.65137"/>
<rect x="-83.867" y="653.116" width="130.458" height="130.458" stroke="white" stroke-opacity="0.03" stroke-width="1.65137"/>
<rect x="46.5911" y="653.116" width="130.458" height="130.458" stroke="white" stroke-opacity="0.03" stroke-width="1.65137"/>
<rect x="177.049" y="653.116" width="130.458" height="130.458" stroke="white" stroke-opacity="0.03" stroke-width="1.65137"/>
<rect x="307.507" y="653.116" width="130.458" height="130.458" stroke="white" stroke-opacity="0.03" stroke-width="1.65137"/>
<rect x="437.965" y="653.116" width="130.458" height="130.458" stroke="white" stroke-opacity="0.03" stroke-width="1.65137"/>
<rect x="568.423" y="653.116" width="130.458" height="130.458" stroke="white" stroke-opacity="0.03" stroke-width="1.65137"/>
<rect x="698.882" y="653.116" width="130.458" height="130.458" stroke="white" stroke-opacity="0.03" stroke-width="1.65137"/>
<rect x="829.34" y="653.116" width="130.458" height="130.458" stroke="white" stroke-opacity="0.03" stroke-width="1.65137"/>
<rect x="959.798" y="653.116" width="130.458" height="130.458" stroke="white" stroke-opacity="0.03" stroke-width="1.65137"/>
<rect x="1090.26" y="653.116" width="130.458" height="130.458" stroke="white" stroke-opacity="0.03" stroke-width="1.65137"/>
<rect x="1220.71" y="653.116" width="130.458" height="130.458" stroke="white" stroke-opacity="0.03" stroke-width="1.65137"/>
<rect x="1351.17" y="653.116" width="130.458" height="130.458" stroke="white" stroke-opacity="0.03" stroke-width="1.65137"/>
<rect x="1481.63" y="653.116" width="130.458" height="130.458" stroke="white" stroke-opacity="0.03" stroke-width="1.65137"/>
<rect x="1612.09" y="653.116" width="130.458" height="130.458" stroke="white" stroke-opacity="0.03" stroke-width="1.65137"/>
<rect x="1742.55" y="653.116" width="130.458" height="130.458" stroke="white" stroke-opacity="0.03" stroke-width="1.65137"/>
<rect x="-83.867" y="783.574" width="130.458" height="130.458" stroke="white" stroke-opacity="0.03" stroke-width="1.65137"/>
<rect x="46.5911" y="783.574" width="130.458" height="130.458" stroke="white" stroke-opacity="0.03" stroke-width="1.65137"/>
<rect x="177.049" y="783.574" width="130.458" height="130.458" stroke="white" stroke-opacity="0.03" stroke-width="1.65137"/>
<rect x="307.507" y="783.574" width="130.458" height="130.458" stroke="white" stroke-opacity="0.03" stroke-width="1.65137"/>
<rect x="437.965" y="783.574" width="130.458" height="130.458" stroke="white" stroke-opacity="0.03" stroke-width="1.65137"/>
<rect x="568.423" y="783.574" width="130.458" height="130.458" stroke="white" stroke-opacity="0.03" stroke-width="1.65137"/>
<rect x="698.882" y="783.574" width="130.458" height="130.458" stroke="white" stroke-opacity="0.03" stroke-width="1.65137"/>
<rect x="829.34" y="783.574" width="130.458" height="130.458" stroke="white" stroke-opacity="0.03" stroke-width="1.65137"/>
<rect x="959.798" y="783.574" width="130.458" height="130.458" stroke="white" stroke-opacity="0.03" stroke-width="1.65137"/>
<rect x="1090.26" y="783.574" width="130.458" height="130.458" stroke="white" stroke-opacity="0.03" stroke-width="1.65137"/>
<rect x="1220.71" y="783.574" width="130.458" height="130.458" stroke="white" stroke-opacity="0.03" stroke-width="1.65137"/>
<rect x="1351.17" y="783.574" width="130.458" height="130.458" stroke="white" stroke-opacity="0.03" stroke-width="1.65137"/>
<rect x="1481.63" y="783.574" width="130.458" height="130.458" stroke="white" stroke-opacity="0.03" stroke-width="1.65137"/>
<rect x="1612.09" y="783.574" width="130.458" height="130.458" stroke="white" stroke-opacity="0.03" stroke-width="1.65137"/>
<rect x="1742.55" y="783.574" width="130.458" height="130.458" stroke="white" stroke-opacity="0.03" stroke-width="1.65137"/>
<rect x="-83.867" y="914.032" width="130.458" height="130.458" stroke="white" stroke-opacity="0.03" stroke-width="1.65137"/>
<rect x="46.5911" y="914.032" width="130.458" height="130.458" stroke="white" stroke-opacity="0.03" stroke-width="1.65137"/>
<rect x="177.049" y="914.032" width="130.458" height="130.458" stroke="white" stroke-opacity="0.03" stroke-width="1.65137"/>
<rect x="307.507" y="914.032" width="130.458" height="130.458" stroke="white" stroke-opacity="0.03" stroke-width="1.65137"/>
<rect x="437.965" y="914.032" width="130.458" height="130.458" stroke="white" stroke-opacity="0.03" stroke-width="1.65137"/>
<rect x="568.423" y="914.032" width="130.458" height="130.458" stroke="white" stroke-opacity="0.03" stroke-width="1.65137"/>
<rect x="698.882" y="914.032" width="130.458" height="130.458" stroke="white" stroke-opacity="0.03" stroke-width="1.65137"/>
<rect x="829.34" y="914.032" width="130.458" height="130.458" stroke="white" stroke-opacity="0.03" stroke-width="1.65137"/>
<rect x="959.798" y="914.032" width="130.458" height="130.458" stroke="white" stroke-opacity="0.03" stroke-width="1.65137"/>
<rect x="1090.26" y="914.032" width="130.458" height="130.458" stroke="white" stroke-opacity="0.03" stroke-width="1.65137"/>
<rect x="1220.71" y="914.032" width="130.458" height="130.458" stroke="white" stroke-opacity="0.03" stroke-width="1.65137"/>
<rect x="1351.17" y="914.032" width="130.458" height="130.458" stroke="white" stroke-opacity="0.03" stroke-width="1.65137"/>
<rect x="1481.63" y="914.032" width="130.458" height="130.458" stroke="white" stroke-opacity="0.03" stroke-width="1.65137"/>
<rect x="1612.09" y="914.032" width="130.458" height="130.458" stroke="white" stroke-opacity="0.03" stroke-width="1.65137"/>
<rect x="1742.55" y="914.032" width="130.458" height="130.458" stroke="white" stroke-opacity="0.03" stroke-width="1.65137"/>
<rect x="-83.867" y="1044.49" width="130.458" height="130.458" stroke="white" stroke-opacity="0.03" stroke-width="1.65137"/>
<rect x="46.5911" y="1044.49" width="130.458" height="130.458" stroke="white" stroke-opacity="0.03" stroke-width="1.65137"/>
<rect x="177.049" y="1044.49" width="130.458" height="130.458" stroke="white" stroke-opacity="0.03" stroke-width="1.65137"/>
<rect x="307.507" y="1044.49" width="130.458" height="130.458" stroke="white" stroke-opacity="0.03" stroke-width="1.65137"/>
<rect x="437.965" y="1044.49" width="130.458" height="130.458" stroke="white" stroke-opacity="0.03" stroke-width="1.65137"/>
<rect x="568.423" y="1044.49" width="130.458" height="130.458" stroke="white" stroke-opacity="0.03" stroke-width="1.65137"/>
<rect x="698.882" y="1044.49" width="130.458" height="130.458" stroke="white" stroke-opacity="0.03" stroke-width="1.65137"/>
<rect x="829.34" y="1044.49" width="130.458" height="130.458" stroke="white" stroke-opacity="0.03" stroke-width="1.65137"/>
<rect x="959.798" y="1044.49" width="130.458" height="130.458" stroke="white" stroke-opacity="0.03" stroke-width="1.65137"/>
<rect x="1090.26" y="1044.49" width="130.458" height="130.458" stroke="white" stroke-opacity="0.03" stroke-width="1.65137"/>
<rect x="1220.71" y="1044.49" width="130.458" height="130.458" stroke="white" stroke-opacity="0.03" stroke-width="1.65137"/>
<rect x="1351.17" y="1044.49" width="130.458" height="130.458" stroke="white" stroke-opacity="0.03" stroke-width="1.65137"/>
<rect x="1481.63" y="1044.49" width="130.458" height="130.458" stroke="white" stroke-opacity="0.03" stroke-width="1.65137"/>
<rect x="1612.09" y="1044.49" width="130.458" height="130.458" stroke="white" stroke-opacity="0.03" stroke-width="1.65137"/>
<rect x="1742.55" y="1044.49" width="130.458" height="130.458" stroke="white" stroke-opacity="0.03" stroke-width="1.65137"/>
<rect x="-83.867" y="1174.95" width="130.458" height="130.458" stroke="white" stroke-opacity="0.03" stroke-width="1.65137"/>
<rect x="46.5911" y="1174.95" width="130.458" height="130.458" stroke="white" stroke-opacity="0.03" stroke-width="1.65137"/>
<rect x="177.049" y="1174.95" width="130.458" height="130.458" stroke="white" stroke-opacity="0.03" stroke-width="1.65137"/>
<rect x="307.507" y="1174.95" width="130.458" height="130.458" stroke="white" stroke-opacity="0.03" stroke-width="1.65137"/>
<rect x="437.965" y="1174.95" width="130.458" height="130.458" stroke="white" stroke-opacity="0.03" stroke-width="1.65137"/>
<rect x="568.423" y="1174.95" width="130.458" height="130.458" stroke="white" stroke-opacity="0.03" stroke-width="1.65137"/>
<rect x="698.882" y="1174.95" width="130.458" height="130.458" stroke="white" stroke-opacity="0.03" stroke-width="1.65137"/>
<rect x="829.34" y="1174.95" width="130.458" height="130.458" stroke="white" stroke-opacity="0.03" stroke-width="1.65137"/>
<rect x="959.798" y="1174.95" width="130.458" height="130.458" stroke="white" stroke-opacity="0.03" stroke-width="1.65137"/>
<rect x="1090.26" y="1174.95" width="130.458" height="130.458" stroke="white" stroke-opacity="0.03" stroke-width="1.65137"/>
<rect x="1220.71" y="1174.95" width="130.458" height="130.458" stroke="white" stroke-opacity="0.03" stroke-width="1.65137"/>
<rect x="1351.17" y="1174.95" width="130.458" height="130.458" stroke="white" stroke-opacity="0.03" stroke-width="1.65137"/>
<rect x="1481.63" y="1174.95" width="130.458" height="130.458" stroke="white" stroke-opacity="0.03" stroke-width="1.65137"/>
<rect x="1612.09" y="1174.95" width="130.458" height="130.458" stroke="white" stroke-opacity="0.03" stroke-width="1.65137"/>
<rect x="1742.55" y="1174.95" width="130.458" height="130.458" stroke="white" stroke-opacity="0.03" stroke-width="1.65137"/>
<rect x="-83.867" y="1305.41" width="130.458" height="130.458" stroke="white" stroke-opacity="0.03" stroke-width="1.65137"/>
<rect x="46.5911" y="1305.41" width="130.458" height="130.458" stroke="white" stroke-opacity="0.03" stroke-width="1.65137"/>
<rect x="177.049" y="1305.41" width="130.458" height="130.458" stroke="white" stroke-opacity="0.03" stroke-width="1.65137"/>
<rect x="307.507" y="1305.41" width="130.458" height="130.458" stroke="white" stroke-opacity="0.03" stroke-width="1.65137"/>
<rect x="437.965" y="1305.41" width="130.458" height="130.458" stroke="white" stroke-opacity="0.03" stroke-width="1.65137"/>
<rect x="568.423" y="1305.41" width="130.458" height="130.458" stroke="white" stroke-opacity="0.03" stroke-width="1.65137"/>
<rect x="698.882" y="1305.41" width="130.458" height="130.458" stroke="white" stroke-opacity="0.03" stroke-width="1.65137"/>
<rect x="829.34" y="1305.41" width="130.458" height="130.458" stroke="white" stroke-opacity="0.03" stroke-width="1.65137"/>
<rect x="959.798" y="1305.41" width="130.458" height="130.458" stroke="white" stroke-opacity="0.03" stroke-width="1.65137"/>
<rect x="1090.26" y="1305.41" width="130.458" height="130.458" stroke="white" stroke-opacity="0.03" stroke-width="1.65137"/>
<rect x="1220.71" y="1305.41" width="130.458" height="130.458" stroke="white" stroke-opacity="0.03" stroke-width="1.65137"/>
<rect x="1351.17" y="1305.41" width="130.458" height="130.458" stroke="white" stroke-opacity="0.03" stroke-width="1.65137"/>
<rect x="1481.63" y="1305.41" width="130.458" height="130.458" stroke="white" stroke-opacity="0.03" stroke-width="1.65137"/>
<rect x="1612.09" y="1305.41" width="130.458" height="130.458" stroke="white" stroke-opacity="0.03" stroke-width="1.65137"/>
<rect x="1742.55" y="1305.41" width="130.458" height="130.458" stroke="white" stroke-opacity="0.03" stroke-width="1.65137"/>
<rect x="-83.867" y="1435.86" width="130.458" height="130.458" stroke="white" stroke-opacity="0.03" stroke-width="1.65137"/>
<rect x="46.5911" y="1435.86" width="130.458" height="130.458" stroke="white" stroke-opacity="0.03" stroke-width="1.65137"/>
<rect x="177.049" y="1435.86" width="130.458" height="130.458" stroke="white" stroke-opacity="0.03" stroke-width="1.65137"/>
<rect x="307.507" y="1435.86" width="130.458" height="130.458" stroke="white" stroke-opacity="0.03" stroke-width="1.65137"/>
<rect x="437.965" y="1435.86" width="130.458" height="130.458" stroke="white" stroke-opacity="0.03" stroke-width="1.65137"/>
<rect x="568.423" y="1435.86" width="130.458" height="130.458" stroke="white" stroke-opacity="0.03" stroke-width="1.65137"/>
<rect x="698.882" y="1435.86" width="130.458" height="130.458" stroke="white" stroke-opacity="0.03" stroke-width="1.65137"/>
<rect x="829.34" y="1435.86" width="130.458" height="130.458" stroke="white" stroke-opacity="0.03" stroke-width="1.65137"/>
<rect x="959.798" y="1435.86" width="130.458" height="130.458" stroke="white" stroke-opacity="0.03" stroke-width="1.65137"/>
<rect x="1090.26" y="1435.86" width="130.458" height="130.458" stroke="white" stroke-opacity="0.03" stroke-width="1.65137"/>
<rect x="1220.71" y="1435.86" width="130.458" height="130.458" stroke="white" stroke-opacity="0.03" stroke-width="1.65137"/>
<rect x="1351.17" y="1435.86" width="130.458" height="130.458" stroke="white" stroke-opacity="0.03" stroke-width="1.65137"/>
<rect x="1481.63" y="1435.86" width="130.458" height="130.458" stroke="white" stroke-opacity="0.03" stroke-width="1.65137"/>
<rect x="1612.09" y="1435.86" width="130.458" height="130.458" stroke="white" stroke-opacity="0.03" stroke-width="1.65137"/>
<rect x="1742.55" y="1435.86" width="130.458" height="130.458" stroke="white" stroke-opacity="0.03" stroke-width="1.65137"/>
<g opacity="0.6">
<g filter="url(#filter0_f_102_285)">
<path d="M2007.83 1045.02C2063.91 999.571 2086.84 949.807 2074.49 900.352C2062.14 850.897 2014.91 803.358 1937.19 762.153C1859.46 720.948 1753.77 687.415 1629.94 664.67C1506.1 641.925 1368.14 630.707 1228.88 632.058C1089.62 633.41 953.574 647.287 833.395 672.4C713.216 697.513 612.802 733.046 541.486 775.698C470.17 818.349 430.267 866.734 425.487 916.355C420.706 965.975 451.203 1015.22 514.142 1059.52L1251.37 926.461L2007.83 1045.02Z" fill="url(#paint0_radial_102_285)"/>
</g>
<rect x="1067.46" y="649.346" width="1.24267" height="1.24267" rx="0.621333" fill="#D9D9D9"/>
<rect x="1154.45" y="782.312" width="1.24267" height="1.24267" rx="0.621333" fill="#D9D9D9"/>
<rect x="1378.12" y="669.229" width="1.24267" height="1.24267" rx="0.621333" fill="#D9D9D9"/>
<rect x="1335.87" y="745.032" width="1.24267" height="1.24267" rx="0.621333" fill="#D9D9D9"/>
<rect x="1343.33" y="856.872" width="1.24267" height="1.24267" rx="0.621333" fill="#D9D9D9"/>
<rect x="806.499" y="830.776" width="1.24267" height="1.24267" rx="0.621333" fill="#D9D9D9" fill-opacity="0.25"/>
<rect x="807.741" y="769.885" width="1.24267" height="1.24267" rx="0.621333" fill="#D9D9D9" fill-opacity="0.25"/>
<rect x="895.97" y="711.48" width="1.24267" height="1.24267" rx="0.621333" fill="#D9D9D9" fill-opacity="0.8"/>
<rect x="728.21" y="762.429" width="1.24267" height="1.24267" rx="0.621333" fill="#D9D9D9" fill-opacity="0.1"/>
<rect x="729.453" y="877.997" width="1.24267" height="1.24267" rx="0.621333" fill="#D9D9D9" fill-opacity="0.8"/>
<rect x="822.653" y="692.84" width="1.24267" height="1.24267" rx="0.621333" fill="#D9D9D9" fill-opacity="0.8"/>
<rect x="1099.77" y="880.482" width="1.24267" height="1.24267" rx="0.621333" fill="#D9D9D9"/>
<rect x="984.2" y="858.115" width="1.24267" height="1.24267" rx="0.621333" fill="#D9D9D9" fill-opacity="0.6"/>
<rect x="1478.78" y="832.019" width="1.24267" height="1.24267" rx="0.621333" fill="#D9D9D9" fill-opacity="0.1"/>
<rect x="1523.52" y="792.253" width="1.24267" height="1.24267" rx="0.621333" fill="#D9D9D9" fill-opacity="0.1"/>
<rect x="1412.92" y="763.672" width="6.21333" height="6.21333" rx="3.10667" fill="#D9D9D9" fill-opacity="0.7"/>
<rect x="1493.69" y="717.693" width="6.21333" height="6.21333" rx="3.10667" fill="#D9D9D9" fill-opacity="0.75"/>
<rect x="1211.61" y="625.736" width="6.21333" height="6.21333" rx="3.10667" fill="#D9D9D9" fill-opacity="0.8"/>
<rect x="1185.51" y="824.562" width="6.21333" height="6.21333" rx="3.10667" fill="#D9D9D9" fill-opacity="0.72"/>
<rect x="1303.56" y="802.194" width="6.21333" height="6.21333" rx="3.10667" fill="#D9D9D9" fill-opacity="0.5"/>
<rect x="1576.95" y="783.554" width="6.21333" height="6.21333" rx="3.10667" fill="#D9D9D9" fill-opacity="0.1"/>
<rect x="1517.3" y="818.349" width="6.21333" height="6.21333" rx="3.10667" fill="#D9D9D9" fill-opacity="0.75"/>
<rect x="1579.44" y="722.664" width="6.21333" height="6.21333" rx="3.10667" fill="#D9D9D9" fill-opacity="0.1"/>
<rect x="1532.22" y="669.229" width="6.21333" height="6.21333" rx="3.10667" fill="#D9D9D9" fill-opacity="0.8"/>
<rect x="1598.08" y="874.269" width="6.21333" height="6.21333" rx="3.10667" fill="#D9D9D9"/>
<rect x="930.765" y="789.768" width="6.21333" height="6.21333" rx="3.10667" fill="#D9D9D9"/>
<rect x="964.317" y="712.722" width="6.21333" height="6.21333" rx="3.10667" fill="#D9D9D9"/>
<rect x="912.125" y="649.346" width="6.21333" height="6.21333" rx="3.10667" fill="#D9D9D9"/>
<rect x="912.125" y="649.346" width="6.21333" height="6.21333" rx="3.10667" fill="#D9D9D9" fill-opacity="0.5"/>
<rect x="1096.04" y="581" width="6.21333" height="6.21333" rx="3.10667" fill="#D9D9D9" fill-opacity="0.8"/>
<rect x="1036.39" y="764.915" width="1.24267" height="1.24267" rx="0.621333" fill="#D9D9D9"/>
<rect x="1101.01" y="694.082" width="1.24267" height="1.24267" rx="0.621333" fill="#D9D9D9"/>
<rect x="1176.81" y="712.722" width="1.24267" height="1.24267" rx="0.621333" fill="#D9D9D9"/>
<rect x="1251.37" y="793.496" width="1.24267" height="1.24267" rx="0.621333" fill="#D9D9D9"/>
<rect x="1217.82" y="722.664" width="1.24267" height="1.24267" rx="0.621333" fill="#D9D9D9" fill-opacity="0.55"/>
<rect x="1271.26" y="695.325" width="1.24267" height="1.24267" rx="0.621333" fill="#D9D9D9" fill-opacity="0.55"/>
<rect x="1217.82" y="671.715" width="1.24267" height="1.24267" rx="0.621333" fill="#D9D9D9" fill-opacity="0.8"/>
<rect x="1104.74" y="736.333" width="1.24267" height="1.24267" rx="0.621333" fill="#D9D9D9"/>
</g>
<rect y="1142.68" width="1789.44" height="424.469" fill="url(#paint1_linear_102_285)"/>
</g>
<defs>
<filter id="filter0_f_102_285" x="176.467" y="383.416" width="2149.81" height="924.633" filterUnits="userSpaceOnUse" color-interpolation-filters="sRGB">
<feFlood flood-opacity="0" result="BackgroundImageFix"/>
<feBlend mode="normal" in="SourceGraphic" in2="BackgroundImageFix" result="shape"/>
<feGaussianBlur stdDeviation="124.267" result="effect1_foregroundBlur_102_285"/>
</filter>
<radialGradient id="paint0_radial_102_285" cx="0" cy="0" r="1" gradientUnits="userSpaceOnUse" gradientTransform="translate(1251.37 782.711) rotate(90) scale(438.262 1229.72)">
<stop stop-color="#4798AD"/>
<stop offset="1" stop-color="#24214B" stop-opacity="0"/>
</radialGradient>
<linearGradient id="paint1_linear_102_285" x1="894.72" y1="1142.68" x2="894.72" y2="1567.15" gradientUnits="userSpaceOnUse">
<stop stop-color="#101010" stop-opacity="0"/>
<stop offset="0.401042" stop-color="#101010"/>
</linearGradient>
<clipPath id="clip0_102_285">
<rect width="1789.44" height="1567" fill="white"/>
</clipPath>
</defs>
</svg>
