<svg width="1790" height="1568" viewBox="0 0 1790 1568" fill="none" xmlns="http://www.w3.org/2000/svg">
<g clip-path="url(#clip0_102_2)">
<rect width="1789.44" height="1567" transform="translate(0.560791)" fill="#F4F4F4"/>
<rect x="-83.3064" y="0.825684" width="130.458" height="130.458" stroke="black" stroke-opacity="0.03" stroke-width="1.65137"/>
<rect x="47.1519" y="0.825684" width="130.458" height="130.458" stroke="black" stroke-opacity="0.03" stroke-width="1.65137"/>
<rect x="177.61" y="0.825684" width="130.458" height="130.458" stroke="black" stroke-opacity="0.03" stroke-width="1.65137"/>
<rect x="308.068" y="0.825684" width="130.458" height="130.458" stroke="black" stroke-opacity="0.03" stroke-width="1.65137"/>
<rect x="438.526" y="0.825684" width="130.458" height="130.458" stroke="black" stroke-opacity="0.03" stroke-width="1.65137"/>
<rect x="568.984" y="0.825684" width="130.458" height="130.458" stroke="black" stroke-opacity="0.03" stroke-width="1.65137"/>
<rect x="699.442" y="0.825684" width="130.458" height="130.458" stroke="black" stroke-opacity="0.03" stroke-width="1.65137"/>
<rect x="829.901" y="0.825684" width="130.458" height="130.458" stroke="black" stroke-opacity="0.03" stroke-width="1.65137"/>
<rect x="960.358" y="0.825684" width="130.458" height="130.458" stroke="black" stroke-opacity="0.03" stroke-width="1.65137"/>
<rect x="1090.82" y="0.825684" width="130.458" height="130.458" stroke="black" stroke-opacity="0.03" stroke-width="1.65137"/>
<rect x="1221.27" y="0.825684" width="130.458" height="130.458" stroke="black" stroke-opacity="0.03" stroke-width="1.65137"/>
<rect x="1351.73" y="0.825684" width="130.458" height="130.458" stroke="black" stroke-opacity="0.03" stroke-width="1.65137"/>
<rect x="1482.19" y="0.825684" width="130.458" height="130.458" stroke="black" stroke-opacity="0.03" stroke-width="1.65137"/>
<rect x="1612.65" y="0.825684" width="130.458" height="130.458" stroke="black" stroke-opacity="0.03" stroke-width="1.65137"/>
<rect x="1743.11" y="0.825684" width="130.458" height="130.458" stroke="black" stroke-opacity="0.03" stroke-width="1.65137"/>
<rect x="-83.3064" y="131.284" width="130.458" height="130.458" stroke="black" stroke-opacity="0.03" stroke-width="1.65137"/>
<rect x="47.1519" y="131.284" width="130.458" height="130.458" stroke="black" stroke-opacity="0.03" stroke-width="1.65137"/>
<rect x="177.61" y="131.284" width="130.458" height="130.458" stroke="black" stroke-opacity="0.03" stroke-width="1.65137"/>
<rect x="308.068" y="131.284" width="130.458" height="130.458" stroke="black" stroke-opacity="0.03" stroke-width="1.65137"/>
<rect x="438.526" y="131.284" width="130.458" height="130.458" stroke="black" stroke-opacity="0.03" stroke-width="1.65137"/>
<rect x="568.984" y="131.284" width="130.458" height="130.458" stroke="black" stroke-opacity="0.03" stroke-width="1.65137"/>
<rect x="699.442" y="131.284" width="130.458" height="130.458" stroke="black" stroke-opacity="0.03" stroke-width="1.65137"/>
<rect x="829.901" y="131.284" width="130.458" height="130.458" stroke="black" stroke-opacity="0.03" stroke-width="1.65137"/>
<rect x="960.358" y="131.284" width="130.458" height="130.458" stroke="black" stroke-opacity="0.03" stroke-width="1.65137"/>
<rect x="1090.82" y="131.284" width="130.458" height="130.458" stroke="black" stroke-opacity="0.03" stroke-width="1.65137"/>
<rect x="1221.27" y="131.284" width="130.458" height="130.458" stroke="black" stroke-opacity="0.03" stroke-width="1.65137"/>
<rect x="1351.73" y="131.284" width="130.458" height="130.458" stroke="black" stroke-opacity="0.03" stroke-width="1.65137"/>
<rect x="1482.19" y="131.284" width="130.458" height="130.458" stroke="black" stroke-opacity="0.03" stroke-width="1.65137"/>
<rect x="1612.65" y="131.284" width="130.458" height="130.458" stroke="black" stroke-opacity="0.03" stroke-width="1.65137"/>
<rect x="1743.11" y="131.284" width="130.458" height="130.458" stroke="black" stroke-opacity="0.03" stroke-width="1.65137"/>
<rect x="-83.3064" y="261.742" width="130.458" height="130.458" stroke="black" stroke-opacity="0.03" stroke-width="1.65137"/>
<rect x="47.1519" y="261.742" width="130.458" height="130.458" stroke="black" stroke-opacity="0.03" stroke-width="1.65137"/>
<rect x="177.61" y="261.742" width="130.458" height="130.458" stroke="black" stroke-opacity="0.03" stroke-width="1.65137"/>
<rect x="308.068" y="261.742" width="130.458" height="130.458" stroke="black" stroke-opacity="0.03" stroke-width="1.65137"/>
<rect x="438.526" y="261.742" width="130.458" height="130.458" stroke="black" stroke-opacity="0.03" stroke-width="1.65137"/>
<rect x="568.984" y="261.742" width="130.458" height="130.458" stroke="black" stroke-opacity="0.03" stroke-width="1.65137"/>
<rect x="699.442" y="261.742" width="130.458" height="130.458" stroke="black" stroke-opacity="0.03" stroke-width="1.65137"/>
<rect x="829.901" y="261.742" width="130.458" height="130.458" stroke="black" stroke-opacity="0.03" stroke-width="1.65137"/>
<rect x="960.358" y="261.742" width="130.458" height="130.458" stroke="black" stroke-opacity="0.03" stroke-width="1.65137"/>
<rect x="1090.82" y="261.742" width="130.458" height="130.458" stroke="black" stroke-opacity="0.03" stroke-width="1.65137"/>
<rect x="1221.27" y="261.742" width="130.458" height="130.458" stroke="black" stroke-opacity="0.03" stroke-width="1.65137"/>
<rect x="1351.73" y="261.742" width="130.458" height="130.458" stroke="black" stroke-opacity="0.03" stroke-width="1.65137"/>
<rect x="1482.19" y="261.742" width="130.458" height="130.458" stroke="black" stroke-opacity="0.03" stroke-width="1.65137"/>
<rect x="1612.65" y="261.742" width="130.458" height="130.458" stroke="black" stroke-opacity="0.03" stroke-width="1.65137"/>
<rect x="1743.11" y="261.742" width="130.458" height="130.458" stroke="black" stroke-opacity="0.03" stroke-width="1.65137"/>
<rect x="-83.3064" y="392.2" width="130.458" height="130.458" stroke="black" stroke-opacity="0.03" stroke-width="1.65137"/>
<rect x="47.1519" y="392.2" width="130.458" height="130.458" stroke="black" stroke-opacity="0.03" stroke-width="1.65137"/>
<rect x="177.61" y="392.2" width="130.458" height="130.458" stroke="black" stroke-opacity="0.03" stroke-width="1.65137"/>
<rect x="308.068" y="392.2" width="130.458" height="130.458" stroke="black" stroke-opacity="0.03" stroke-width="1.65137"/>
<rect x="438.526" y="392.2" width="130.458" height="130.458" stroke="black" stroke-opacity="0.03" stroke-width="1.65137"/>
<rect x="568.984" y="392.2" width="130.458" height="130.458" stroke="black" stroke-opacity="0.03" stroke-width="1.65137"/>
<rect x="699.442" y="392.2" width="130.458" height="130.458" stroke="black" stroke-opacity="0.03" stroke-width="1.65137"/>
<rect x="829.901" y="392.2" width="130.458" height="130.458" stroke="black" stroke-opacity="0.03" stroke-width="1.65137"/>
<rect x="960.358" y="392.2" width="130.458" height="130.458" stroke="black" stroke-opacity="0.03" stroke-width="1.65137"/>
<rect x="1090.82" y="392.2" width="130.458" height="130.458" stroke="black" stroke-opacity="0.03" stroke-width="1.65137"/>
<rect x="1221.27" y="392.2" width="130.458" height="130.458" stroke="black" stroke-opacity="0.03" stroke-width="1.65137"/>
<rect x="1351.73" y="392.2" width="130.458" height="130.458" stroke="black" stroke-opacity="0.03" stroke-width="1.65137"/>
<rect x="1482.19" y="392.2" width="130.458" height="130.458" stroke="black" stroke-opacity="0.03" stroke-width="1.65137"/>
<rect x="1612.65" y="392.2" width="130.458" height="130.458" stroke="black" stroke-opacity="0.03" stroke-width="1.65137"/>
<rect x="1743.11" y="392.2" width="130.458" height="130.458" stroke="black" stroke-opacity="0.03" stroke-width="1.65137"/>
<rect x="-83.3064" y="522.658" width="130.458" height="130.458" stroke="black" stroke-opacity="0.03" stroke-width="1.65137"/>
<rect x="47.1519" y="522.658" width="130.458" height="130.458" stroke="black" stroke-opacity="0.03" stroke-width="1.65137"/>
<rect x="177.61" y="522.658" width="130.458" height="130.458" stroke="black" stroke-opacity="0.03" stroke-width="1.65137"/>
<rect x="308.068" y="522.658" width="130.458" height="130.458" stroke="black" stroke-opacity="0.03" stroke-width="1.65137"/>
<rect x="438.526" y="522.658" width="130.458" height="130.458" stroke="black" stroke-opacity="0.03" stroke-width="1.65137"/>
<rect x="568.984" y="522.658" width="130.458" height="130.458" stroke="black" stroke-opacity="0.03" stroke-width="1.65137"/>
<rect x="699.442" y="522.658" width="130.458" height="130.458" stroke="black" stroke-opacity="0.03" stroke-width="1.65137"/>
<rect x="829.901" y="522.658" width="130.458" height="130.458" stroke="black" stroke-opacity="0.03" stroke-width="1.65137"/>
<rect x="960.358" y="522.658" width="130.458" height="130.458" stroke="black" stroke-opacity="0.03" stroke-width="1.65137"/>
<rect x="1090.82" y="522.658" width="130.458" height="130.458" stroke="black" stroke-opacity="0.03" stroke-width="1.65137"/>
<rect x="1221.27" y="522.658" width="130.458" height="130.458" stroke="black" stroke-opacity="0.03" stroke-width="1.65137"/>
<rect x="1351.73" y="522.658" width="130.458" height="130.458" stroke="black" stroke-opacity="0.03" stroke-width="1.65137"/>
<rect x="1482.19" y="522.658" width="130.458" height="130.458" stroke="black" stroke-opacity="0.03" stroke-width="1.65137"/>
<rect x="1612.65" y="522.658" width="130.458" height="130.458" stroke="black" stroke-opacity="0.03" stroke-width="1.65137"/>
<rect x="1743.11" y="522.658" width="130.458" height="130.458" stroke="black" stroke-opacity="0.03" stroke-width="1.65137"/>
<rect x="-83.3064" y="653.116" width="130.458" height="130.458" stroke="black" stroke-opacity="0.03" stroke-width="1.65137"/>
<rect x="47.1519" y="653.116" width="130.458" height="130.458" stroke="black" stroke-opacity="0.03" stroke-width="1.65137"/>
<rect x="177.61" y="653.116" width="130.458" height="130.458" stroke="black" stroke-opacity="0.03" stroke-width="1.65137"/>
<rect x="308.068" y="653.116" width="130.458" height="130.458" stroke="black" stroke-opacity="0.03" stroke-width="1.65137"/>
<rect x="438.526" y="653.116" width="130.458" height="130.458" stroke="black" stroke-opacity="0.03" stroke-width="1.65137"/>
<rect x="568.984" y="653.116" width="130.458" height="130.458" stroke="black" stroke-opacity="0.03" stroke-width="1.65137"/>
<rect x="699.442" y="653.116" width="130.458" height="130.458" stroke="black" stroke-opacity="0.03" stroke-width="1.65137"/>
<rect x="829.901" y="653.116" width="130.458" height="130.458" stroke="black" stroke-opacity="0.03" stroke-width="1.65137"/>
<rect x="960.358" y="653.116" width="130.458" height="130.458" stroke="black" stroke-opacity="0.03" stroke-width="1.65137"/>
<rect x="1090.82" y="653.116" width="130.458" height="130.458" stroke="black" stroke-opacity="0.03" stroke-width="1.65137"/>
<rect x="1221.27" y="653.116" width="130.458" height="130.458" stroke="black" stroke-opacity="0.03" stroke-width="1.65137"/>
<rect x="1351.73" y="653.116" width="130.458" height="130.458" stroke="black" stroke-opacity="0.03" stroke-width="1.65137"/>
<rect x="1482.19" y="653.116" width="130.458" height="130.458" stroke="black" stroke-opacity="0.03" stroke-width="1.65137"/>
<rect x="1612.65" y="653.116" width="130.458" height="130.458" stroke="black" stroke-opacity="0.03" stroke-width="1.65137"/>
<rect x="1743.11" y="653.116" width="130.458" height="130.458" stroke="black" stroke-opacity="0.03" stroke-width="1.65137"/>
<rect x="-83.3064" y="783.574" width="130.458" height="130.458" stroke="black" stroke-opacity="0.03" stroke-width="1.65137"/>
<rect x="47.1519" y="783.574" width="130.458" height="130.458" stroke="black" stroke-opacity="0.03" stroke-width="1.65137"/>
<rect x="177.61" y="783.574" width="130.458" height="130.458" stroke="black" stroke-opacity="0.03" stroke-width="1.65137"/>
<rect x="308.068" y="783.574" width="130.458" height="130.458" stroke="black" stroke-opacity="0.03" stroke-width="1.65137"/>
<rect x="438.526" y="783.574" width="130.458" height="130.458" stroke="black" stroke-opacity="0.03" stroke-width="1.65137"/>
<rect x="568.984" y="783.574" width="130.458" height="130.458" stroke="black" stroke-opacity="0.03" stroke-width="1.65137"/>
<rect x="699.442" y="783.574" width="130.458" height="130.458" stroke="black" stroke-opacity="0.03" stroke-width="1.65137"/>
<rect x="829.901" y="783.574" width="130.458" height="130.458" stroke="black" stroke-opacity="0.03" stroke-width="1.65137"/>
<rect x="960.358" y="783.574" width="130.458" height="130.458" stroke="black" stroke-opacity="0.03" stroke-width="1.65137"/>
<rect x="1090.82" y="783.574" width="130.458" height="130.458" stroke="black" stroke-opacity="0.03" stroke-width="1.65137"/>
<rect x="1221.27" y="783.574" width="130.458" height="130.458" stroke="black" stroke-opacity="0.03" stroke-width="1.65137"/>
<rect x="1351.73" y="783.574" width="130.458" height="130.458" stroke="black" stroke-opacity="0.03" stroke-width="1.65137"/>
<rect x="1482.19" y="783.574" width="130.458" height="130.458" stroke="black" stroke-opacity="0.03" stroke-width="1.65137"/>
<rect x="1612.65" y="783.574" width="130.458" height="130.458" stroke="black" stroke-opacity="0.03" stroke-width="1.65137"/>
<rect x="1743.11" y="783.574" width="130.458" height="130.458" stroke="black" stroke-opacity="0.03" stroke-width="1.65137"/>
<rect x="-83.3064" y="914.032" width="130.458" height="130.458" stroke="black" stroke-opacity="0.03" stroke-width="1.65137"/>
<rect x="47.1519" y="914.032" width="130.458" height="130.458" stroke="black" stroke-opacity="0.03" stroke-width="1.65137"/>
<rect x="177.61" y="914.032" width="130.458" height="130.458" stroke="black" stroke-opacity="0.03" stroke-width="1.65137"/>
<rect x="308.068" y="914.032" width="130.458" height="130.458" stroke="black" stroke-opacity="0.03" stroke-width="1.65137"/>
<rect x="438.526" y="914.032" width="130.458" height="130.458" stroke="black" stroke-opacity="0.03" stroke-width="1.65137"/>
<rect x="568.984" y="914.032" width="130.458" height="130.458" stroke="black" stroke-opacity="0.03" stroke-width="1.65137"/>
<rect x="699.442" y="914.032" width="130.458" height="130.458" stroke="black" stroke-opacity="0.03" stroke-width="1.65137"/>
<rect x="829.901" y="914.032" width="130.458" height="130.458" stroke="black" stroke-opacity="0.03" stroke-width="1.65137"/>
<rect x="960.358" y="914.032" width="130.458" height="130.458" stroke="black" stroke-opacity="0.03" stroke-width="1.65137"/>
<rect x="1090.82" y="914.032" width="130.458" height="130.458" stroke="black" stroke-opacity="0.03" stroke-width="1.65137"/>
<rect x="1221.27" y="914.032" width="130.458" height="130.458" stroke="black" stroke-opacity="0.03" stroke-width="1.65137"/>
<rect x="1351.73" y="914.032" width="130.458" height="130.458" stroke="black" stroke-opacity="0.03" stroke-width="1.65137"/>
<rect x="1482.19" y="914.032" width="130.458" height="130.458" stroke="black" stroke-opacity="0.03" stroke-width="1.65137"/>
<rect x="1612.65" y="914.032" width="130.458" height="130.458" stroke="black" stroke-opacity="0.03" stroke-width="1.65137"/>
<rect x="1743.11" y="914.032" width="130.458" height="130.458" stroke="black" stroke-opacity="0.03" stroke-width="1.65137"/>
<rect x="-83.3064" y="1044.49" width="130.458" height="130.458" stroke="black" stroke-opacity="0.03" stroke-width="1.65137"/>
<rect x="47.1519" y="1044.49" width="130.458" height="130.458" stroke="black" stroke-opacity="0.03" stroke-width="1.65137"/>
<rect x="177.61" y="1044.49" width="130.458" height="130.458" stroke="black" stroke-opacity="0.03" stroke-width="1.65137"/>
<rect x="308.068" y="1044.49" width="130.458" height="130.458" stroke="black" stroke-opacity="0.03" stroke-width="1.65137"/>
<rect x="438.526" y="1044.49" width="130.458" height="130.458" stroke="black" stroke-opacity="0.03" stroke-width="1.65137"/>
<rect x="568.984" y="1044.49" width="130.458" height="130.458" stroke="black" stroke-opacity="0.03" stroke-width="1.65137"/>
<rect x="699.442" y="1044.49" width="130.458" height="130.458" stroke="black" stroke-opacity="0.03" stroke-width="1.65137"/>
<rect x="829.901" y="1044.49" width="130.458" height="130.458" stroke="black" stroke-opacity="0.03" stroke-width="1.65137"/>
<rect x="960.358" y="1044.49" width="130.458" height="130.458" stroke="black" stroke-opacity="0.03" stroke-width="1.65137"/>
<rect x="1090.82" y="1044.49" width="130.458" height="130.458" stroke="black" stroke-opacity="0.03" stroke-width="1.65137"/>
<rect x="1221.27" y="1044.49" width="130.458" height="130.458" stroke="black" stroke-opacity="0.03" stroke-width="1.65137"/>
<rect x="1351.73" y="1044.49" width="130.458" height="130.458" stroke="black" stroke-opacity="0.03" stroke-width="1.65137"/>
<rect x="1482.19" y="1044.49" width="130.458" height="130.458" stroke="black" stroke-opacity="0.03" stroke-width="1.65137"/>
<rect x="1612.65" y="1044.49" width="130.458" height="130.458" stroke="black" stroke-opacity="0.03" stroke-width="1.65137"/>
<rect x="1743.11" y="1044.49" width="130.458" height="130.458" stroke="black" stroke-opacity="0.03" stroke-width="1.65137"/>
<rect x="-83.3064" y="1174.95" width="130.458" height="130.458" stroke="black" stroke-opacity="0.03" stroke-width="1.65137"/>
<rect x="47.1519" y="1174.95" width="130.458" height="130.458" stroke="black" stroke-opacity="0.03" stroke-width="1.65137"/>
<rect x="177.61" y="1174.95" width="130.458" height="130.458" stroke="black" stroke-opacity="0.03" stroke-width="1.65137"/>
<rect x="308.068" y="1174.95" width="130.458" height="130.458" stroke="black" stroke-opacity="0.03" stroke-width="1.65137"/>
<rect x="438.526" y="1174.95" width="130.458" height="130.458" stroke="black" stroke-opacity="0.03" stroke-width="1.65137"/>
<rect x="568.984" y="1174.95" width="130.458" height="130.458" stroke="black" stroke-opacity="0.03" stroke-width="1.65137"/>
<rect x="699.442" y="1174.95" width="130.458" height="130.458" stroke="black" stroke-opacity="0.03" stroke-width="1.65137"/>
<rect x="829.901" y="1174.95" width="130.458" height="130.458" stroke="black" stroke-opacity="0.03" stroke-width="1.65137"/>
<rect x="960.358" y="1174.95" width="130.458" height="130.458" stroke="black" stroke-opacity="0.03" stroke-width="1.65137"/>
<rect x="1090.82" y="1174.95" width="130.458" height="130.458" stroke="black" stroke-opacity="0.03" stroke-width="1.65137"/>
<rect x="1221.27" y="1174.95" width="130.458" height="130.458" stroke="black" stroke-opacity="0.03" stroke-width="1.65137"/>
<rect x="1351.73" y="1174.95" width="130.458" height="130.458" stroke="black" stroke-opacity="0.03" stroke-width="1.65137"/>
<rect x="1482.19" y="1174.95" width="130.458" height="130.458" stroke="black" stroke-opacity="0.03" stroke-width="1.65137"/>
<rect x="1612.65" y="1174.95" width="130.458" height="130.458" stroke="black" stroke-opacity="0.03" stroke-width="1.65137"/>
<rect x="1743.11" y="1174.95" width="130.458" height="130.458" stroke="black" stroke-opacity="0.03" stroke-width="1.65137"/>
<rect x="-83.3064" y="1305.41" width="130.458" height="130.458" stroke="black" stroke-opacity="0.03" stroke-width="1.65137"/>
<rect x="47.1519" y="1305.41" width="130.458" height="130.458" stroke="black" stroke-opacity="0.03" stroke-width="1.65137"/>
<rect x="177.61" y="1305.41" width="130.458" height="130.458" stroke="black" stroke-opacity="0.03" stroke-width="1.65137"/>
<rect x="308.068" y="1305.41" width="130.458" height="130.458" stroke="black" stroke-opacity="0.03" stroke-width="1.65137"/>
<rect x="438.526" y="1305.41" width="130.458" height="130.458" stroke="black" stroke-opacity="0.03" stroke-width="1.65137"/>
<rect x="568.984" y="1305.41" width="130.458" height="130.458" stroke="black" stroke-opacity="0.03" stroke-width="1.65137"/>
<rect x="699.442" y="1305.41" width="130.458" height="130.458" stroke="black" stroke-opacity="0.03" stroke-width="1.65137"/>
<rect x="829.901" y="1305.41" width="130.458" height="130.458" stroke="black" stroke-opacity="0.03" stroke-width="1.65137"/>
<rect x="960.358" y="1305.41" width="130.458" height="130.458" stroke="black" stroke-opacity="0.03" stroke-width="1.65137"/>
<rect x="1090.82" y="1305.41" width="130.458" height="130.458" stroke="black" stroke-opacity="0.03" stroke-width="1.65137"/>
<rect x="1221.27" y="1305.41" width="130.458" height="130.458" stroke="black" stroke-opacity="0.03" stroke-width="1.65137"/>
<rect x="1351.73" y="1305.41" width="130.458" height="130.458" stroke="black" stroke-opacity="0.03" stroke-width="1.65137"/>
<rect x="1482.19" y="1305.41" width="130.458" height="130.458" stroke="black" stroke-opacity="0.03" stroke-width="1.65137"/>
<rect x="1612.65" y="1305.41" width="130.458" height="130.458" stroke="black" stroke-opacity="0.03" stroke-width="1.65137"/>
<rect x="1743.11" y="1305.41" width="130.458" height="130.458" stroke="black" stroke-opacity="0.03" stroke-width="1.65137"/>
<rect x="-83.3064" y="1435.86" width="130.458" height="130.458" stroke="black" stroke-opacity="0.03" stroke-width="1.65137"/>
<rect x="47.1519" y="1435.86" width="130.458" height="130.458" stroke="black" stroke-opacity="0.03" stroke-width="1.65137"/>
<rect x="177.61" y="1435.86" width="130.458" height="130.458" stroke="black" stroke-opacity="0.03" stroke-width="1.65137"/>
<rect x="308.068" y="1435.86" width="130.458" height="130.458" stroke="black" stroke-opacity="0.03" stroke-width="1.65137"/>
<rect x="438.526" y="1435.86" width="130.458" height="130.458" stroke="black" stroke-opacity="0.03" stroke-width="1.65137"/>
<rect x="568.984" y="1435.86" width="130.458" height="130.458" stroke="black" stroke-opacity="0.03" stroke-width="1.65137"/>
<rect x="699.442" y="1435.86" width="130.458" height="130.458" stroke="black" stroke-opacity="0.03" stroke-width="1.65137"/>
<rect x="829.901" y="1435.86" width="130.458" height="130.458" stroke="black" stroke-opacity="0.03" stroke-width="1.65137"/>
<rect x="960.358" y="1435.86" width="130.458" height="130.458" stroke="black" stroke-opacity="0.03" stroke-width="1.65137"/>
<rect x="1090.82" y="1435.86" width="130.458" height="130.458" stroke="black" stroke-opacity="0.03" stroke-width="1.65137"/>
<rect x="1221.27" y="1435.86" width="130.458" height="130.458" stroke="black" stroke-opacity="0.03" stroke-width="1.65137"/>
<rect x="1351.73" y="1435.86" width="130.458" height="130.458" stroke="black" stroke-opacity="0.03" stroke-width="1.65137"/>
<rect x="1482.19" y="1435.86" width="130.458" height="130.458" stroke="black" stroke-opacity="0.03" stroke-width="1.65137"/>
<rect x="1612.65" y="1435.86" width="130.458" height="130.458" stroke="black" stroke-opacity="0.03" stroke-width="1.65137"/>
<rect x="1743.11" y="1435.86" width="130.458" height="130.458" stroke="black" stroke-opacity="0.03" stroke-width="1.65137"/>
<g opacity="0.6">
<g filter="url(#filter0_f_102_2)">
<path d="M2008.39 1045.02C2064.47 999.571 2087.4 949.807 2075.05 900.352C2062.7 850.897 2015.47 803.358 1937.75 762.153C1860.03 720.948 1754.33 687.415 1630.5 664.67C1506.66 641.925 1368.7 630.707 1229.44 632.058C1090.18 633.41 954.135 647.287 833.956 672.4C713.777 697.513 613.363 733.046 542.047 775.698C470.731 818.349 430.828 866.734 426.047 916.355C421.267 965.975 451.763 1015.22 514.703 1059.52L1251.93 926.461L2008.39 1045.02Z" fill="url(#paint0_radial_102_2)"/>
</g>
<rect x="1068.02" y="649.346" width="1.24267" height="1.24267" rx="0.621333" fill="#D9D9D9"/>
<rect x="1155.01" y="782.312" width="1.24267" height="1.24267" rx="0.621333" fill="#D9D9D9"/>
<rect x="1378.69" y="669.229" width="1.24267" height="1.24267" rx="0.621333" fill="#D9D9D9"/>
<rect x="1336.44" y="745.032" width="1.24267" height="1.24267" rx="0.621333" fill="#D9D9D9"/>
<rect x="1343.89" y="856.872" width="1.24267" height="1.24267" rx="0.621333" fill="#D9D9D9"/>
<rect x="807.059" y="830.776" width="1.24267" height="1.24267" rx="0.621333" fill="#D9D9D9" fill-opacity="0.25"/>
<rect x="808.302" y="769.885" width="1.24267" height="1.24267" rx="0.621333" fill="#D9D9D9" fill-opacity="0.25"/>
<rect x="896.531" y="711.48" width="1.24267" height="1.24267" rx="0.621333" fill="#D9D9D9" fill-opacity="0.8"/>
<rect x="728.771" y="762.429" width="1.24267" height="1.24267" rx="0.621333" fill="#D9D9D9" fill-opacity="0.1"/>
<rect x="730.014" y="877.997" width="1.24267" height="1.24267" rx="0.621333" fill="#D9D9D9" fill-opacity="0.8"/>
<rect x="823.214" y="692.84" width="1.24267" height="1.24267" rx="0.621333" fill="#D9D9D9" fill-opacity="0.8"/>
<rect x="1100.33" y="880.482" width="1.24267" height="1.24267" rx="0.621333" fill="#D9D9D9"/>
<rect x="984.76" y="858.115" width="1.24267" height="1.24267" rx="0.621333" fill="#D9D9D9" fill-opacity="0.6"/>
<rect x="1479.34" y="832.019" width="1.24267" height="1.24267" rx="0.621333" fill="#D9D9D9" fill-opacity="0.1"/>
<rect x="1524.08" y="792.253" width="1.24267" height="1.24267" rx="0.621333" fill="#D9D9D9" fill-opacity="0.1"/>
<rect x="1413.48" y="763.672" width="6.21333" height="6.21333" rx="3.10667" fill="#D9D9D9" fill-opacity="0.7"/>
<rect x="1494.25" y="717.693" width="6.21333" height="6.21333" rx="3.10667" fill="#D9D9D9" fill-opacity="0.75"/>
<rect x="1212.17" y="625.736" width="6.21333" height="6.21333" rx="3.10667" fill="#D9D9D9" fill-opacity="0.8"/>
<rect x="1186.07" y="824.562" width="6.21333" height="6.21333" rx="3.10667" fill="#D9D9D9" fill-opacity="0.72"/>
<rect x="1304.13" y="802.194" width="6.21333" height="6.21333" rx="3.10667" fill="#D9D9D9" fill-opacity="0.5"/>
<rect x="1577.51" y="783.554" width="6.21333" height="6.21333" rx="3.10667" fill="#D9D9D9" fill-opacity="0.1"/>
<rect x="1517.86" y="818.349" width="6.21333" height="6.21333" rx="3.10667" fill="#D9D9D9" fill-opacity="0.75"/>
<rect x="1580" y="722.664" width="6.21333" height="6.21333" rx="3.10667" fill="#D9D9D9" fill-opacity="0.1"/>
<rect x="1532.78" y="669.229" width="6.21333" height="6.21333" rx="3.10667" fill="#D9D9D9" fill-opacity="0.8"/>
<rect x="1598.64" y="874.269" width="6.21333" height="6.21333" rx="3.10667" fill="#D9D9D9"/>
<rect x="931.326" y="789.768" width="6.21333" height="6.21333" rx="3.10667" fill="#D9D9D9"/>
<rect x="964.878" y="712.722" width="6.21333" height="6.21333" rx="3.10667" fill="#D9D9D9"/>
<rect x="912.686" y="649.346" width="6.21333" height="6.21333" rx="3.10667" fill="#D9D9D9"/>
<rect x="912.686" y="649.346" width="6.21333" height="6.21333" rx="3.10667" fill="#D9D9D9" fill-opacity="0.5"/>
<rect x="1096.6" y="581" width="6.21333" height="6.21333" rx="3.10667" fill="#D9D9D9" fill-opacity="0.8"/>
<rect x="1036.95" y="764.915" width="1.24267" height="1.24267" rx="0.621333" fill="#D9D9D9"/>
<rect x="1101.57" y="694.082" width="1.24267" height="1.24267" rx="0.621333" fill="#D9D9D9"/>
<rect x="1177.37" y="712.722" width="1.24267" height="1.24267" rx="0.621333" fill="#D9D9D9"/>
<rect x="1251.93" y="793.496" width="1.24267" height="1.24267" rx="0.621333" fill="#D9D9D9"/>
<rect x="1218.38" y="722.664" width="1.24267" height="1.24267" rx="0.621333" fill="#D9D9D9" fill-opacity="0.55"/>
<rect x="1271.82" y="695.325" width="1.24267" height="1.24267" rx="0.621333" fill="#D9D9D9" fill-opacity="0.55"/>
<rect x="1218.38" y="671.715" width="1.24267" height="1.24267" rx="0.621333" fill="#D9D9D9" fill-opacity="0.8"/>
<rect x="1105.3" y="736.333" width="1.24267" height="1.24267" rx="0.621333" fill="#D9D9D9"/>
</g>
<rect x="0.560791" y="1142.68" width="1789.44" height="424.469" fill="url(#paint1_linear_102_2)"/>
<rect x="1366" y="1678" width="1789.44" height="424.469" transform="rotate(-90 1366 1678)" fill="url(#paint2_linear_102_2)"/>
<rect x="425" y="-111" width="1789.44" height="424.469" transform="rotate(90 425 -111)" fill="url(#paint3_linear_102_2)"/>
<rect x="1790" y="424" width="1789.44" height="424.469" transform="rotate(-180 1790 424)" fill="url(#paint4_linear_102_2)"/>
</g>
<defs>
<filter id="filter0_f_102_2" x="177.028" y="383.416" width="2149.81" height="924.633" filterUnits="userSpaceOnUse" color-interpolation-filters="sRGB">
<feFlood flood-opacity="0" result="BackgroundImageFix"/>
<feBlend mode="normal" in="SourceGraphic" in2="BackgroundImageFix" result="shape"/>
<feGaussianBlur stdDeviation="124.267" result="effect1_foregroundBlur_102_2"/>
</filter>
<radialGradient id="paint0_radial_102_2" cx="0" cy="0" r="1" gradientUnits="userSpaceOnUse" gradientTransform="translate(1251.93 782.711) rotate(90) scale(438.262 1229.72)">
<stop stop-color="#4798AD"/>
<stop offset="1" stop-color="#24214B" stop-opacity="0"/>
</radialGradient>
<linearGradient id="paint1_linear_102_2" x1="895.28" y1="1142.68" x2="895.28" y2="1567.15" gradientUnits="userSpaceOnUse">
<stop stop-color="#F4F4F4" stop-opacity="0"/>
<stop offset="0.401042" stop-color="#F4F4F4"/>
</linearGradient>
<linearGradient id="paint2_linear_102_2" x1="2260.72" y1="1678" x2="2260.72" y2="2102.47" gradientUnits="userSpaceOnUse">
<stop stop-color="#F4F4F4" stop-opacity="0"/>
<stop offset="0.401042" stop-color="#F4F4F4"/>
</linearGradient>
<linearGradient id="paint3_linear_102_2" x1="1319.72" y1="-111" x2="1319.72" y2="313.469" gradientUnits="userSpaceOnUse">
<stop stop-color="#F4F4F4" stop-opacity="0"/>
<stop offset="0.401042" stop-color="#F4F4F4"/>
</linearGradient>
<linearGradient id="paint4_linear_102_2" x1="2684.72" y1="424" x2="2684.72" y2="848.469" gradientUnits="userSpaceOnUse">
<stop stop-color="#F4F4F4" stop-opacity="0"/>
<stop offset="0.401042" stop-color="#F4F4F4"/>
</linearGradient>
<clipPath id="clip0_102_2">
<rect width="1789.44" height="1567" fill="white" transform="translate(0.560791)"/>
</clipPath>
</defs>
</svg>
