<svg xmlns="http://www.w3.org/2000/svg" width="1790" height="1568" fill="none" viewBox="0 0 1790 1568">
  <g clip-path="url(#a)">
    <path fill="#F4F4F4" d="M.56 0H1790v1567H.56z"/>
    <path stroke="#000" stroke-opacity=".03" stroke-width="1.651" d="M-83.306.826H47.152v130.458H-83.306zm130.458 0H177.61v130.458H47.152zm130.458 0h130.458v130.458H177.61zm130.458 0h130.458v130.458H308.068zm130.458 0h130.458v130.458H438.526zm130.458 0h130.458v130.458H568.984zm130.458 0H829.9v130.458H699.442zm130.459 0h130.458v130.458H829.901z"/>
    <path stroke="#000" stroke-opacity=".03" stroke-width="1.651" d="M960.358.826h130.458v130.458H960.358zm130.462 0h130.458v130.458H1090.82z"/>
    <path stroke="#000" stroke-opacity=".03" stroke-width="1.651" d="M1221.27.826h130.458v130.458H1221.27zm130.46 0h130.458v130.458H1351.73zm130.46 0h130.458v130.458H1482.19zm130.46 0h130.458v130.458H1612.65zm130.46 0h130.458v130.458H1743.11zM-83.306 131.284H47.152v130.458H-83.306zm130.458 0H177.61v130.458H47.152zm130.458 0h130.458v130.458H177.61zm130.458 0h130.458v130.458H308.068zm130.458 0h130.458v130.458H438.526zm130.458 0h130.458v130.458H568.984zm130.458 0H829.9v130.458H699.442zm130.459 0h130.458v130.458H829.901z"/>
    <path stroke="#000" stroke-opacity=".03" stroke-width="1.651" d="M960.358 131.284h130.458v130.458H960.358zm130.462 0h130.458v130.458H1090.82z"/>
    <path stroke="#000" stroke-opacity=".03" stroke-width="1.651" d="M1221.27 131.284h130.458v130.458H1221.27zm130.46 0h130.458v130.458H1351.73zm130.46 0h130.458v130.458H1482.19zm130.46 0h130.458v130.458H1612.65zm130.46 0h130.458v130.458H1743.11zM-83.306 261.742H47.152V392.2H-83.306zm130.458 0H177.61V392.2H47.152zm130.458 0h130.458V392.2H177.61zm130.458 0h130.458V392.2H308.068zm130.458 0h130.458V392.2H438.526zm130.458 0h130.458V392.2H568.984zm130.458 0H829.9V392.2H699.442zm130.459 0h130.458V392.2H829.901z"/>
    <path stroke="#000" stroke-opacity=".03" stroke-width="1.651" d="M960.358 261.742h130.458V392.2H960.358zm130.462 0h130.458V392.2H1090.82z"/>
    <path stroke="#000" stroke-opacity=".03" stroke-width="1.651" d="M1221.27 261.742h130.458V392.2H1221.27zm130.46 0h130.458V392.2H1351.73zm130.46 0h130.458V392.2H1482.19zm130.46 0h130.458V392.2H1612.65zm130.46 0h130.458V392.2H1743.11zM-83.306 392.2H47.152v130.458H-83.306zm130.458 0H177.61v130.458H47.152zm130.458 0h130.458v130.458H177.61zm130.458 0h130.458v130.458H308.068zm130.458 0h130.458v130.458H438.526zm130.458 0h130.458v130.458H568.984zm130.458 0H829.9v130.458H699.442zm130.459 0h130.458v130.458H829.901z"/>
    <path stroke="#000" stroke-opacity=".03" stroke-width="1.651" d="M960.358 392.2h130.458v130.458H960.358zm130.462 0h130.458v130.458H1090.82z"/>
    <path stroke="#000" stroke-opacity=".03" stroke-width="1.651" d="M1221.27 392.2h130.458v130.458H1221.27zm130.46 0h130.458v130.458H1351.73zm130.46 0h130.458v130.458H1482.19zm130.46 0h130.458v130.458H1612.65zm130.46 0h130.458v130.458H1743.11zM-83.306 522.658H47.152v130.458H-83.306zm130.458 0H177.61v130.458H47.152zm130.458 0h130.458v130.458H177.61zm130.458 0h130.458v130.458H308.068zm130.458 0h130.458v130.458H438.526zm130.458 0h130.458v130.458H568.984zm130.458 0H829.9v130.458H699.442zm130.459 0h130.458v130.458H829.901z"/>
    <path stroke="#000" stroke-opacity=".03" stroke-width="1.651" d="M960.358 522.658h130.458v130.458H960.358zm130.462 0h130.458v130.458H1090.82z"/>
    <path stroke="#000" stroke-opacity=".03" stroke-width="1.651" d="M1221.27 522.658h130.458v130.458H1221.27zm130.46 0h130.458v130.458H1351.73zm130.46 0h130.458v130.458H1482.19zm130.46 0h130.458v130.458H1612.65zm130.46 0h130.458v130.458H1743.11zM-83.306 653.116H47.152v130.458H-83.306zm130.458 0H177.61v130.458H47.152zm130.458 0h130.458v130.458H177.61zm130.458 0h130.458v130.458H308.068zm130.458 0h130.458v130.458H438.526zm130.458 0h130.458v130.458H568.984zm130.458 0H829.9v130.458H699.442zm130.459 0h130.458v130.458H829.901z"/>
    <path stroke="#000" stroke-opacity=".03" stroke-width="1.651" d="M960.358 653.116h130.458v130.458H960.358zm130.462 0h130.458v130.458H1090.82z"/>
    <path stroke="#000" stroke-opacity=".03" stroke-width="1.651" d="M1221.27 653.116h130.458v130.458H1221.27zm130.46 0h130.458v130.458H1351.73zm130.46 0h130.458v130.458H1482.19zm130.46 0h130.458v130.458H1612.65zm130.46 0h130.458v130.458H1743.11zM-83.306 783.574H47.152v130.458H-83.306zm130.458 0H177.61v130.458H47.152zm130.458 0h130.458v130.458H177.61zm130.458 0h130.458v130.458H308.068zm130.458 0h130.458v130.458H438.526zm130.458 0h130.458v130.458H568.984zm130.458 0H829.9v130.458H699.442zm130.459 0h130.458v130.458H829.901z"/>
    <path stroke="#000" stroke-opacity=".03" stroke-width="1.651" d="M960.358 783.574h130.458v130.458H960.358zm130.462 0h130.458v130.458H1090.82z"/>
    <path stroke="#000" stroke-opacity=".03" stroke-width="1.651" d="M1221.27 783.574h130.458v130.458H1221.27zm130.46 0h130.458v130.458H1351.73zm130.46 0h130.458v130.458H1482.19zm130.46 0h130.458v130.458H1612.65zm130.46 0h130.458v130.458H1743.11zM-83.306 914.032H47.152v130.458H-83.306zm130.458 0H177.61v130.458H47.152zm130.458 0h130.458v130.458H177.61zm130.458 0h130.458v130.458H308.068zm130.458 0h130.458v130.458H438.526zm130.458 0h130.458v130.458H568.984zm130.458 0H829.9v130.458H699.442zm130.459 0h130.458v130.458H829.901z"/>
    <path stroke="#000" stroke-opacity=".03" stroke-width="1.651" d="M960.358 914.032h130.458v130.458H960.358zm130.462 0h130.458v130.458H1090.82z"/>
    <path stroke="#000" stroke-opacity=".03" stroke-width="1.651" d="M1221.27 914.032h130.458v130.458H1221.27zm130.46 0h130.458v130.458H1351.73zm130.46 0h130.458v130.458H1482.19zm130.46 0h130.458v130.458H1612.65zm130.46 0h130.458v130.458H1743.11zM-83.306 1044.49H47.152v130.458H-83.306zm130.458 0H177.61v130.458H47.152zm130.458 0h130.458v130.458H177.61zm130.458 0h130.458v130.458H308.068zm130.458 0h130.458v130.458H438.526zm130.458 0h130.458v130.458H568.984zm130.458 0H829.9v130.458H699.442zm130.459 0h130.458v130.458H829.901z"/>
    <path stroke="#000" stroke-opacity=".03" stroke-width="1.651" d="M960.358 1044.49h130.458v130.458H960.358zm130.462 0h130.458v130.458H1090.82z"/>
    <path stroke="#000" stroke-opacity=".03" stroke-width="1.651" d="M1221.27 1044.49h130.458v130.458H1221.27zm130.46 0h130.458v130.458H1351.73zm130.46 0h130.458v130.458H1482.19zm130.46 0h130.458v130.458H1612.65zm130.46 0h130.458v130.458H1743.11zM-83.306 1174.95H47.152v130.458H-83.306zm130.458 0H177.61v130.458H47.152zm130.458 0h130.458v130.458H177.61zm130.458 0h130.458v130.458H308.068zm130.458 0h130.458v130.458H438.526zm130.458 0h130.458v130.458H568.984zm130.458 0H829.9v130.458H699.442zm130.459 0h130.458v130.458H829.901z"/>
    <path stroke="#000" stroke-opacity=".03" stroke-width="1.651" d="M960.358 1174.95h130.458v130.458H960.358zm130.462 0h130.458v130.458H1090.82z"/>
    <path stroke="#000" stroke-opacity=".03" stroke-width="1.651" d="M1221.27 1174.95h130.458v130.458H1221.27zm130.46 0h130.458v130.458H1351.73zm130.46 0h130.458v130.458H1482.19zm130.46 0h130.458v130.458H1612.65zm130.46 0h130.458v130.458H1743.11zM-83.306 1305.41H47.152v130.458H-83.306zm130.458 0H177.61v130.458H47.152zm130.458 0h130.458v130.458H177.61zm130.458 0h130.458v130.458H308.068zm130.458 0h130.458v130.458H438.526zm130.458 0h130.458v130.458H568.984zm130.458 0H829.9v130.458H699.442zm130.459 0h130.458v130.458H829.901z"/>
    <path stroke="#000" stroke-opacity=".03" stroke-width="1.651" d="M960.358 1305.41h130.458v130.458H960.358zm130.462 0h130.458v130.458H1090.82z"/>
    <path stroke="#000" stroke-opacity=".03" stroke-width="1.651" d="M1221.27 1305.41h130.458v130.458H1221.27zm130.46 0h130.458v130.458H1351.73zm130.46 0h130.458v130.458H1482.19zm130.46 0h130.458v130.458H1612.65zm130.46 0h130.458v130.458H1743.11zM-83.306 1435.86H47.152v130.458H-83.306zm130.458 0H177.61v130.458H47.152zm130.458 0h130.458v130.458H177.61zm130.458 0h130.458v130.458H308.068zm130.458 0h130.458v130.458H438.526zm130.458 0h130.458v130.458H568.984zm130.458 0H829.9v130.458H699.442zm130.459 0h130.458v130.458H829.901z"/>
    <path stroke="#000" stroke-opacity=".03" stroke-width="1.651" d="M960.358 1435.86h130.458v130.458H960.358zm130.462 0h130.458v130.458H1090.82z"/>
    <path stroke="#000" stroke-opacity=".03" stroke-width="1.651" d="M1221.27 1435.86h130.458v130.458H1221.27zm130.46 0h130.458v130.458H1351.73zm130.46 0h130.458v130.458H1482.19zm130.46 0h130.458v130.458H1612.65zm130.46 0h130.458v130.458H1743.11z"/>
    <g opacity=".6">
      <g filter="url(#b)">
        <path fill="url(#c)" d="M2008.39 1045.02c56.08-45.449 79.01-95.213 66.66-144.668-12.35-49.455-59.58-96.994-137.3-138.199-77.72-41.205-183.42-74.738-307.25-97.483-123.84-22.745-261.8-33.963-401.06-32.612-139.26 1.352-275.305 15.229-395.484 40.342-120.179 25.113-220.593 60.646-291.909 103.298-71.316 42.651-111.219 91.036-116 140.657-4.78 49.62 25.716 98.865 88.656 143.165l737.227-133.059 756.46 118.559Z"/>
      </g>
      <rect width="1.243" height="1.243" x="1068.02" y="649.346" fill="#D9D9D9" rx=".621"/>
      <rect width="1.243" height="1.243" x="1155.01" y="782.312" fill="#D9D9D9" rx=".621"/>
      <rect width="1.243" height="1.243" x="1378.69" y="669.229" fill="#D9D9D9" rx=".621"/>
      <rect width="1.243" height="1.243" x="1336.44" y="745.032" fill="#D9D9D9" rx=".621"/>
      <rect width="1.243" height="1.243" x="1343.89" y="856.872" fill="#D9D9D9" rx=".621"/>
      <rect width="1.243" height="1.243" x="807.059" y="830.776" fill="#D9D9D9" fill-opacity=".25" rx=".621"/>
      <rect width="1.243" height="1.243" x="808.302" y="769.885" fill="#D9D9D9" fill-opacity=".25" rx=".621"/>
      <rect width="1.243" height="1.243" x="896.531" y="711.48" fill="#D9D9D9" fill-opacity=".8" rx=".621"/>
      <rect width="1.243" height="1.243" x="728.771" y="762.429" fill="#D9D9D9" fill-opacity=".1" rx=".621"/>
      <rect width="1.243" height="1.243" x="730.014" y="877.997" fill="#D9D9D9" fill-opacity=".8" rx=".621"/>
      <rect width="1.243" height="1.243" x="823.214" y="692.84" fill="#D9D9D9" fill-opacity=".8" rx=".621"/>
      <rect width="1.243" height="1.243" x="1100.33" y="880.482" fill="#D9D9D9" rx=".621"/>
      <rect width="1.243" height="1.243" x="984.76" y="858.115" fill="#D9D9D9" fill-opacity=".6" rx=".621"/>
      <rect width="1.243" height="1.243" x="1479.34" y="832.019" fill="#D9D9D9" fill-opacity=".1" rx=".621"/>
      <rect width="1.243" height="1.243" x="1524.08" y="792.253" fill="#D9D9D9" fill-opacity=".1" rx=".621"/>
      <rect width="6.213" height="6.213" x="1413.48" y="763.672" fill="#D9D9D9" fill-opacity=".7" rx="3.107"/>
      <rect width="6.213" height="6.213" x="1494.25" y="717.693" fill="#D9D9D9" fill-opacity=".75" rx="3.107"/>
      <rect width="6.213" height="6.213" x="1212.17" y="625.736" fill="#D9D9D9" fill-opacity=".8" rx="3.107"/>
      <rect width="6.213" height="6.213" x="1186.07" y="824.562" fill="#D9D9D9" fill-opacity=".72" rx="3.107"/>
      <rect width="6.213" height="6.213" x="1304.13" y="802.194" fill="#D9D9D9" fill-opacity=".5" rx="3.107"/>
      <rect width="6.213" height="6.213" x="1577.51" y="783.554" fill="#D9D9D9" fill-opacity=".1" rx="3.107"/>
      <rect width="6.213" height="6.213" x="1517.86" y="818.349" fill="#D9D9D9" fill-opacity=".75" rx="3.107"/>
      <rect width="6.213" height="6.213" x="1580" y="722.664" fill="#D9D9D9" fill-opacity=".1" rx="3.107"/>
      <rect width="6.213" height="6.213" x="1532.78" y="669.229" fill="#D9D9D9" fill-opacity=".8" rx="3.107"/>
      <rect width="6.213" height="6.213" x="1598.64" y="874.269" fill="#D9D9D9" rx="3.107"/>
      <rect width="6.213" height="6.213" x="931.326" y="789.768" fill="#D9D9D9" rx="3.107"/>
      <rect width="6.213" height="6.213" x="964.878" y="712.722" fill="#D9D9D9" rx="3.107"/>
      <rect width="6.213" height="6.213" x="912.686" y="649.346" fill="#D9D9D9" rx="3.107"/>
      <rect width="6.213" height="6.213" x="912.686" y="649.346" fill="#D9D9D9" fill-opacity=".5" rx="3.107"/>
      <rect width="6.213" height="6.213" x="1096.6" y="581" fill="#D9D9D9" fill-opacity=".8" rx="3.107"/>
      <rect width="1.243" height="1.243" x="1036.95" y="764.915" fill="#D9D9D9" rx=".621"/>
      <rect width="1.243" height="1.243" x="1101.57" y="694.082" fill="#D9D9D9" rx=".621"/>
      <rect width="1.243" height="1.243" x="1177.37" y="712.722" fill="#D9D9D9" rx=".621"/>
      <rect width="1.243" height="1.243" x="1251.93" y="793.496" fill="#D9D9D9" rx=".621"/>
      <rect width="1.243" height="1.243" x="1218.38" y="722.664" fill="#D9D9D9" fill-opacity=".55" rx=".621"/>
      <rect width="1.243" height="1.243" x="1271.82" y="695.325" fill="#D9D9D9" fill-opacity=".55" rx=".621"/>
      <rect width="1.243" height="1.243" x="1218.38" y="671.715" fill="#D9D9D9" fill-opacity=".8" rx=".621"/>
      <rect width="1.243" height="1.243" x="1105.3" y="736.333" fill="#D9D9D9" rx=".621"/>
    </g>
    <path fill="url(#d)" d="M.561 1142.68h1789.44v424.469H.561z"/>
    <path fill="url(#e)" d="M1366 1678h1789.44v424.469H1366z" transform="rotate(-90 1366 1678)"/>
    <path fill="url(#f)" d="M425-111h1789.44v424.469H425z" transform="rotate(90 425 -111)"/>
    <path fill="url(#g)" d="M1790 424h1789.44v424.469H1790z" transform="rotate(-180 1790 424)"/>
  </g>
  <defs>
    <linearGradient id="d" x1="895.28" x2="895.28" y1="1142.68" y2="1567.15" gradientUnits="userSpaceOnUse">
      <stop stop-color="#F4F4F4" stop-opacity="0"/>
      <stop offset=".401" stop-color="#F4F4F4"/>
    </linearGradient>
    <linearGradient id="e" x1="2260.72" x2="2260.72" y1="1678" y2="2102.47" gradientUnits="userSpaceOnUse">
      <stop stop-color="#F4F4F4" stop-opacity="0"/>
      <stop offset=".401" stop-color="#F4F4F4"/>
    </linearGradient>
    <linearGradient id="f" x1="1319.72" x2="1319.72" y1="-111" y2="313.469" gradientUnits="userSpaceOnUse">
      <stop stop-color="#F4F4F4" stop-opacity="0"/>
      <stop offset=".401" stop-color="#F4F4F4"/>
    </linearGradient>
    <linearGradient id="g" x1="2684.72" x2="2684.72" y1="424" y2="848.469" gradientUnits="userSpaceOnUse">
      <stop stop-color="#F4F4F4" stop-opacity="0"/>
      <stop offset=".401" stop-color="#F4F4F4"/>
    </linearGradient>
    <radialGradient id="c" cx="0" cy="0" r="1" gradientTransform="matrix(0 438.262 -1229.72 0 1251.93 782.711)" gradientUnits="userSpaceOnUse">
      <stop stop-color="#4798AD"/>
      <stop offset="1" stop-color="#24214B" stop-opacity="0"/>
    </radialGradient>
    <clipPath id="a">
      <path fill="#fff" d="M0 0h1789.44v1567H0z" transform="translate(.56)"/>
    </clipPath>
    <filter id="b" width="2149.81" height="924.633" x="177.028" y="383.416" color-interpolation-filters="sRGB" filterUnits="userSpaceOnUse">
      <feFlood flood-opacity="0" result="BackgroundImageFix"/>
      <feBlend in="SourceGraphic" in2="BackgroundImageFix" result="shape"/>
      <feGaussianBlur result="effect1_foregroundBlur_102_2" stdDeviation="124.267"/>
    </filter>
  </defs>
</svg>
