<svg width="251" height="250" viewBox="0 0 251 250" fill="none" xmlns="http://www.w3.org/2000/svg">
<path d="M0.617188 0H8.19295V7.57576H0.617188V0ZM8.19295 0H15.7687V7.57576H8.19295V0ZM15.7687 0H23.3445V7.57576H15.7687V0ZM23.3445 0H30.9202V7.57576H23.3445V0ZM30.9202 0H38.496V7.57576H30.9202V0ZM38.496 0H46.0717V7.57576H38.496V0ZM46.0717 0H53.6475V7.57576H46.0717V0ZM68.799 0H76.3748V7.57576H68.799V0ZM76.3748 0H83.9505V7.57576H76.3748V0ZM83.9505 0H91.5263V7.57576H83.9505V0ZM91.5263 0H99.102V7.57576H91.5263V0ZM114.254 0H121.829V7.57576H114.254V0ZM129.405 0H136.981V7.57576H129.405V0ZM136.981 0H144.557V7.57576H136.981V0ZM159.708 0H167.284V7.57576H159.708V0ZM167.284 0H174.86V7.57576H167.284V0ZM174.86 0H182.435V7.57576H174.86V0ZM182.435 0H190.011V7.57576H182.435V0ZM197.587 0H205.163V7.57576H197.587V0ZM205.163 0H212.738V7.57576H205.163V0ZM212.738 0H220.314V7.57576H212.738V0ZM220.314 0H227.89V7.57576H220.314V0ZM227.89 0H235.466V7.57576H227.89V0ZM235.466 0H243.041V7.57576H235.466V0ZM243.041 0H250.617V7.57576H243.041V0ZM0.617188 7.57576H8.19295V15.1515H0.617188V7.57576ZM46.0717 7.57576H53.6475V15.1515H46.0717V7.57576ZM68.799 7.57576H76.3748V15.1515H68.799V7.57576ZM76.3748 7.57576H83.9505V15.1515H76.3748V7.57576ZM114.254 7.57576H121.829V15.1515H114.254V7.57576ZM129.405 7.57576H136.981V15.1515H129.405V7.57576ZM144.557 7.57576H152.132V15.1515H144.557V7.57576ZM159.708 7.57576H167.284V15.1515H159.708V7.57576ZM167.284 7.57576H174.86V15.1515H167.284V7.57576ZM182.435 7.57576H190.011V15.1515H182.435V7.57576ZM197.587 7.57576H205.163V15.1515H197.587V7.57576ZM243.041 7.57576H250.617V15.1515H243.041V7.57576ZM0.617188 15.1515H8.19295V22.7273H0.617188V15.1515ZM15.7687 15.1515H23.3445V22.7273H15.7687V15.1515ZM23.3445 15.1515H30.9202V22.7273H23.3445V15.1515ZM30.9202 15.1515H38.496V22.7273H30.9202V15.1515ZM46.0717 15.1515H53.6475V22.7273H46.0717V15.1515ZM61.2232 15.1515H68.799V22.7273H61.2232V15.1515ZM68.799 15.1515H76.3748V22.7273H68.799V15.1515ZM83.9505 15.1515H91.5263V22.7273H83.9505V15.1515ZM99.102 15.1515H106.678V22.7273H99.102V15.1515ZM114.254 15.1515H121.829V22.7273H114.254V15.1515ZM121.829 15.1515H129.405V22.7273H121.829V15.1515ZM144.557 15.1515H152.132V22.7273H144.557V15.1515ZM167.284 15.1515H174.86V22.7273H167.284V15.1515ZM174.86 15.1515H182.435V22.7273H174.86V15.1515ZM182.435 15.1515H190.011V22.7273H182.435V15.1515ZM197.587 15.1515H205.163V22.7273H197.587V15.1515ZM212.738 15.1515H220.314V22.7273H212.738V15.1515ZM220.314 15.1515H227.89V22.7273H220.314V15.1515ZM227.89 15.1515H235.466V22.7273H227.89V15.1515ZM243.041 15.1515H250.617V22.7273H243.041V15.1515ZM0.617188 22.7273H8.19295V30.303H0.617188V22.7273ZM15.7687 22.7273H23.3445V30.303H15.7687V22.7273ZM23.3445 22.7273H30.9202V30.303H23.3445V22.7273ZM30.9202 22.7273H38.496V30.303H30.9202V22.7273ZM46.0717 22.7273H53.6475V30.303H46.0717V22.7273ZM106.678 22.7273H114.254V30.303H106.678V22.7273ZM121.829 22.7273H129.405V30.303H121.829V22.7273ZM129.405 22.7273H136.981V30.303H129.405V22.7273ZM136.981 22.7273H144.557V30.303H136.981V22.7273ZM144.557 22.7273H152.132V30.303H144.557V22.7273ZM152.132 22.7273H159.708V30.303H152.132V22.7273ZM159.708 22.7273H167.284V30.303H159.708V22.7273ZM174.86 22.7273H182.435V30.303H174.86V22.7273ZM182.435 22.7273H190.011V30.303H182.435V22.7273ZM197.587 22.7273H205.163V30.303H197.587V22.7273ZM212.738 22.7273H220.314V30.303H212.738V22.7273ZM220.314 22.7273H227.89V30.303H220.314V22.7273ZM227.89 22.7273H235.466V30.303H227.89V22.7273ZM243.041 22.7273H250.617V30.303H243.041V22.7273ZM0.617188 30.303H8.19295V37.8788H0.617188V30.303ZM15.7687 30.303H23.3445V37.8788H15.7687V30.303ZM23.3445 30.303H30.9202V37.8788H23.3445V30.303ZM30.9202 30.303H38.496V37.8788H30.9202V30.303ZM46.0717 30.303H53.6475V37.8788H46.0717V30.303ZM61.2232 30.303H68.799V37.8788H61.2232V30.303ZM68.799 30.303H76.3748V37.8788H68.799V30.303ZM76.3748 30.303H83.9505V37.8788H76.3748V30.303ZM83.9505 30.303H91.5263V37.8788H83.9505V30.303ZM129.405 30.303H136.981V37.8788H129.405V30.303ZM136.981 30.303H144.557V37.8788H136.981V30.303ZM144.557 30.303H152.132V37.8788H144.557V30.303ZM152.132 30.303H159.708V37.8788H152.132V30.303ZM182.435 30.303H190.011V37.8788H182.435V30.303ZM197.587 30.303H205.163V37.8788H197.587V30.303ZM212.738 30.303H220.314V37.8788H212.738V30.303ZM220.314 30.303H227.89V37.8788H220.314V30.303ZM227.89 30.303H235.466V37.8788H227.89V30.303ZM243.041 30.303H250.617V37.8788H243.041V30.303ZM0.617188 37.8788H8.19295V45.4545H0.617188V37.8788ZM46.0717 37.8788H53.6475V45.4545H46.0717V37.8788ZM61.2232 37.8788H68.799V45.4545H61.2232V37.8788ZM76.3748 37.8788H83.9505V45.4545H76.3748V37.8788ZM91.5263 37.8788H99.102V45.4545H91.5263V37.8788ZM99.102 37.8788H106.678V45.4545H99.102V37.8788ZM136.981 37.8788H144.557V45.4545H136.981V37.8788ZM144.557 37.8788H152.132V45.4545H144.557V37.8788ZM159.708 37.8788H167.284V45.4545H159.708V37.8788ZM197.587 37.8788H205.163V45.4545H197.587V37.8788ZM243.041 37.8788H250.617V45.4545H243.041V37.8788ZM0.617188 45.4545H8.19295V53.0303H0.617188V45.4545ZM8.19295 45.4545H15.7687V53.0303H8.19295V45.4545ZM15.7687 45.4545H23.3445V53.0303H15.7687V45.4545ZM23.3445 45.4545H30.9202V53.0303H23.3445V45.4545ZM30.9202 45.4545H38.496V53.0303H30.9202V45.4545ZM38.496 45.4545H46.0717V53.0303H38.496V45.4545ZM46.0717 45.4545H53.6475V53.0303H46.0717V45.4545ZM61.2232 45.4545H68.799V53.0303H61.2232V45.4545ZM76.3748 45.4545H83.9505V53.0303H76.3748V45.4545ZM91.5263 45.4545H99.102V53.0303H91.5263V45.4545ZM106.678 45.4545H114.254V53.0303H106.678V45.4545ZM121.829 45.4545H129.405V53.0303H121.829V45.4545ZM136.981 45.4545H144.557V53.0303H136.981V45.4545ZM152.132 45.4545H159.708V53.0303H152.132V45.4545ZM167.284 45.4545H174.86V53.0303H167.284V45.4545ZM182.435 45.4545H190.011V53.0303H182.435V45.4545ZM197.587 45.4545H205.163V53.0303H197.587V45.4545ZM205.163 45.4545H212.738V53.0303H205.163V45.4545ZM212.738 45.4545H220.314V53.0303H212.738V45.4545ZM220.314 45.4545H227.89V53.0303H220.314V45.4545ZM227.89 45.4545H235.466V53.0303H227.89V45.4545ZM235.466 45.4545H243.041V53.0303H235.466V45.4545ZM243.041 45.4545H250.617V53.0303H243.041V45.4545ZM68.799 53.0303H76.3748V60.6061H68.799V53.0303ZM129.405 53.0303H136.981V60.6061H129.405V53.0303ZM159.708 53.0303H167.284V60.6061H159.708V53.0303ZM167.284 53.0303H174.86V60.6061H167.284V53.0303ZM174.86 53.0303H182.435V60.6061H174.86V53.0303ZM8.19295 60.6061H15.7687V68.1818H8.19295V60.6061ZM30.9202 60.6061H38.496V68.1818H30.9202V60.6061ZM46.0717 60.6061H53.6475V68.1818H46.0717V60.6061ZM61.2232 60.6061H68.799V68.1818H61.2232V60.6061ZM68.799 60.6061H76.3748V68.1818H68.799V60.6061ZM83.9505 60.6061H91.5263V68.1818H83.9505V60.6061ZM99.102 60.6061H106.678V68.1818H99.102V60.6061ZM106.678 60.6061H114.254V68.1818H106.678V60.6061ZM121.829 60.6061H129.405V68.1818H121.829V60.6061ZM144.557 60.6061H152.132V68.1818H144.557V60.6061ZM152.132 60.6061H159.708V68.1818H152.132V60.6061ZM167.284 60.6061H174.86V68.1818H167.284V60.6061ZM190.011 60.6061H197.587V68.1818H190.011V60.6061ZM205.163 60.6061H212.738V68.1818H205.163V60.6061ZM212.738 60.6061H220.314V68.1818H212.738V60.6061ZM227.89 60.6061H235.466V68.1818H227.89V60.6061ZM0.617188 68.1818H8.19295V75.7576H0.617188V68.1818ZM15.7687 68.1818H23.3445V75.7576H15.7687V68.1818ZM30.9202 68.1818H38.496V75.7576H30.9202V68.1818ZM38.496 68.1818H46.0717V75.7576H38.496V68.1818ZM53.6475 68.1818H61.2232V75.7576H53.6475V68.1818ZM61.2232 68.1818H68.799V75.7576H61.2232V68.1818ZM76.3748 68.1818H83.9505V75.7576H76.3748V68.1818ZM99.102 68.1818H106.678V75.7576H99.102V68.1818ZM106.678 68.1818H114.254V75.7576H106.678V68.1818ZM121.829 68.1818H129.405V75.7576H121.829V68.1818ZM144.557 68.1818H152.132V75.7576H144.557V68.1818ZM167.284 68.1818H174.86V75.7576H167.284V68.1818ZM174.86 68.1818H182.435V75.7576H174.86V68.1818ZM197.587 68.1818H205.163V75.7576H197.587V68.1818ZM205.163 68.1818H212.738V75.7576H205.163V68.1818ZM227.89 68.1818H235.466V75.7576H227.89V68.1818ZM8.19295 75.7576H15.7687V83.3333H8.19295V75.7576ZM38.496 75.7576H46.0717V83.3333H38.496V75.7576ZM46.0717 75.7576H53.6475V83.3333H46.0717V75.7576ZM53.6475 75.7576H61.2232V83.3333H53.6475V75.7576ZM61.2232 75.7576H68.799V83.3333H61.2232V75.7576ZM68.799 75.7576H76.3748V83.3333H68.799V75.7576ZM83.9505 75.7576H91.5263V83.3333H83.9505V75.7576ZM106.678 75.7576H114.254V83.3333H106.678V75.7576ZM121.829 75.7576H129.405V83.3333H121.829V75.7576ZM129.405 75.7576H136.981V83.3333H129.405V75.7576ZM159.708 75.7576H167.284V83.3333H159.708V75.7576ZM167.284 75.7576H174.86V83.3333H167.284V75.7576ZM174.86 75.7576H182.435V83.3333H174.86V75.7576ZM182.435 75.7576H190.011V83.3333H182.435V75.7576ZM197.587 75.7576H205.163V83.3333H197.587V75.7576ZM212.738 75.7576H220.314V83.3333H212.738V75.7576ZM220.314 75.7576H227.89V83.3333H220.314V75.7576ZM227.89 75.7576H235.466V83.3333H227.89V75.7576ZM0.617188 83.3333H8.19295V90.9091H0.617188V83.3333ZM30.9202 83.3333H38.496V90.9091H30.9202V83.3333ZM38.496 83.3333H46.0717V90.9091H38.496V83.3333ZM53.6475 83.3333H61.2232V90.9091H53.6475V83.3333ZM68.799 83.3333H76.3748V90.9091H68.799V83.3333ZM83.9505 83.3333H91.5263V90.9091H83.9505V83.3333ZM99.102 83.3333H106.678V90.9091H99.102V83.3333ZM129.405 83.3333H136.981V90.9091H129.405V83.3333ZM136.981 83.3333H144.557V90.9091H136.981V83.3333ZM144.557 83.3333H152.132V90.9091H144.557V83.3333ZM159.708 83.3333H167.284V90.9091H159.708V83.3333ZM174.86 83.3333H182.435V90.9091H174.86V83.3333ZM182.435 83.3333H190.011V90.9091H182.435V83.3333ZM8.19295 90.9091H15.7687V98.4848H8.19295V90.9091ZM15.7687 90.9091H23.3445V98.4848H15.7687V90.9091ZM23.3445 90.9091H30.9202V98.4848H23.3445V90.9091ZM46.0717 90.9091H53.6475V98.4848H46.0717V90.9091ZM53.6475 90.9091H61.2232V98.4848H53.6475V90.9091ZM61.2232 90.9091H68.799V98.4848H61.2232V90.9091ZM83.9505 90.9091H91.5263V98.4848H83.9505V90.9091ZM91.5263 90.9091H99.102V98.4848H91.5263V90.9091ZM99.102 90.9091H106.678V98.4848H99.102V90.9091ZM121.829 90.9091H129.405V98.4848H121.829V90.9091ZM136.981 90.9091H144.557V98.4848H136.981V90.9091ZM152.132 90.9091H159.708V98.4848H152.132V90.9091ZM182.435 90.9091H190.011V98.4848H182.435V90.9091ZM197.587 90.9091H205.163V98.4848H197.587V90.9091ZM205.163 90.9091H212.738V98.4848H205.163V90.9091ZM212.738 90.9091H220.314V98.4848H212.738V90.9091ZM220.314 90.9091H227.89V98.4848H220.314V90.9091ZM227.89 90.9091H235.466V98.4848H227.89V90.9091ZM235.466 90.9091H243.041V98.4848H235.466V90.9091ZM30.9202 98.4848H38.496V106.061H30.9202V98.4848ZM38.496 98.4848H46.0717V106.061H38.496V98.4848ZM83.9505 98.4848H91.5263V106.061H83.9505V98.4848ZM129.405 98.4848H136.981V106.061H129.405V98.4848ZM144.557 98.4848H152.132V106.061H144.557V98.4848ZM167.284 98.4848H174.86V106.061H167.284V98.4848ZM205.163 98.4848H212.738V106.061H205.163V98.4848ZM235.466 98.4848H243.041V106.061H235.466V98.4848ZM243.041 98.4848H250.617V106.061H243.041V98.4848ZM0.617188 106.061H8.19295V113.636H0.617188V106.061ZM8.19295 106.061H15.7687V113.636H8.19295V106.061ZM15.7687 106.061H23.3445V113.636H15.7687V106.061ZM23.3445 106.061H30.9202V113.636H23.3445V106.061ZM46.0717 106.061H53.6475V113.636H46.0717V106.061ZM53.6475 106.061H61.2232V113.636H53.6475V106.061ZM61.2232 106.061H68.799V113.636H61.2232V106.061ZM68.799 106.061H76.3748V113.636H68.799V106.061ZM76.3748 106.061H83.9505V113.636H76.3748V106.061ZM91.5263 106.061H99.102V113.636H91.5263V106.061ZM129.405 106.061H136.981V113.636H129.405V106.061ZM144.557 106.061H152.132V113.636H144.557V106.061ZM159.708 106.061H167.284V113.636H159.708V106.061ZM190.011 106.061H197.587V113.636H190.011V106.061ZM205.163 106.061H212.738V113.636H205.163V106.061ZM212.738 106.061H220.314V113.636H212.738V106.061ZM220.314 106.061H227.89V113.636H220.314V106.061ZM235.466 106.061H243.041V113.636H235.466V106.061ZM8.19295 113.636H15.7687V121.212H8.19295V113.636ZM23.3445 113.636H30.9202V121.212H23.3445V113.636ZM38.496 113.636H46.0717V121.212H38.496V113.636ZM53.6475 113.636H61.2232V121.212H53.6475V113.636ZM61.2232 113.636H68.799V121.212H61.2232V113.636ZM76.3748 113.636H83.9505V121.212H76.3748V113.636ZM83.9505 113.636H91.5263V121.212H83.9505V113.636ZM99.102 113.636H106.678V121.212H99.102V113.636ZM106.678 113.636H114.254V121.212H106.678V113.636ZM114.254 113.636H121.829V121.212H114.254V113.636ZM136.981 113.636H144.557V121.212H136.981V113.636ZM144.557 113.636H152.132V121.212H144.557V113.636ZM152.132 113.636H159.708V121.212H152.132V113.636ZM159.708 113.636H167.284V121.212H159.708V113.636ZM167.284 113.636H174.86V121.212H167.284V113.636ZM182.435 113.636H190.011V121.212H182.435V113.636ZM190.011 113.636H197.587V121.212H190.011V113.636ZM197.587 113.636H205.163V121.212H197.587V113.636ZM212.738 113.636H220.314V121.212H212.738V113.636ZM220.314 113.636H227.89V121.212H220.314V113.636ZM8.19295 121.212H15.7687V128.788H8.19295V121.212ZM15.7687 121.212H23.3445V128.788H15.7687V121.212ZM23.3445 121.212H30.9202V128.788H23.3445V121.212ZM38.496 121.212H46.0717V128.788H38.496V121.212ZM46.0717 121.212H53.6475V128.788H46.0717V121.212ZM76.3748 121.212H83.9505V128.788H76.3748V121.212ZM91.5263 121.212H99.102V128.788H91.5263V121.212ZM99.102 121.212H106.678V128.788H99.102V121.212ZM106.678 121.212H114.254V128.788H106.678V121.212ZM114.254 121.212H121.829V128.788H114.254V121.212ZM129.405 121.212H136.981V128.788H129.405V121.212ZM136.981 121.212H144.557V128.788H136.981V121.212ZM159.708 121.212H167.284V128.788H159.708V121.212ZM167.284 121.212H174.86V128.788H167.284V121.212ZM174.86 121.212H182.435V128.788H174.86V121.212ZM182.435 121.212H190.011V128.788H182.435V121.212ZM197.587 121.212H205.163V128.788H197.587V121.212ZM212.738 121.212H220.314V128.788H212.738V121.212ZM220.314 121.212H227.89V128.788H220.314V121.212ZM243.041 121.212H250.617V128.788H243.041V121.212ZM0.617188 128.788H8.19295V136.364H0.617188V128.788ZM15.7687 128.788H23.3445V136.364H15.7687V128.788ZM38.496 128.788H46.0717V136.364H38.496V128.788ZM53.6475 128.788H61.2232V136.364H53.6475V128.788ZM68.799 128.788H76.3748V136.364H68.799V128.788ZM76.3748 128.788H83.9505V136.364H76.3748V128.788ZM99.102 128.788H106.678V136.364H99.102V128.788ZM106.678 128.788H114.254V136.364H106.678V128.788ZM129.405 128.788H136.981V136.364H129.405V128.788ZM159.708 128.788H167.284V136.364H159.708V128.788ZM174.86 128.788H182.435V136.364H174.86V128.788ZM190.011 128.788H197.587V136.364H190.011V128.788ZM205.163 128.788H212.738V136.364H205.163V128.788ZM243.041 128.788H250.617V136.364H243.041V128.788ZM8.19295 136.364H15.7687V143.939H8.19295V136.364ZM15.7687 136.364H23.3445V143.939H15.7687V136.364ZM23.3445 136.364H30.9202V143.939H23.3445V136.364ZM30.9202 136.364H38.496V143.939H30.9202V136.364ZM38.496 136.364H46.0717V143.939H38.496V136.364ZM46.0717 136.364H53.6475V143.939H46.0717V136.364ZM61.2232 136.364H68.799V143.939H61.2232V136.364ZM76.3748 136.364H83.9505V143.939H76.3748V136.364ZM99.102 136.364H106.678V143.939H99.102V136.364ZM129.405 136.364H136.981V143.939H129.405V136.364ZM174.86 136.364H182.435V143.939H174.86V136.364ZM182.435 136.364H190.011V143.939H182.435V136.364ZM205.163 136.364H212.738V143.939H205.163V136.364ZM220.314 136.364H227.89V143.939H220.314V136.364ZM235.466 136.364H243.041V143.939H235.466V136.364ZM0.617188 143.939H8.19295V151.515H0.617188V143.939ZM8.19295 143.939H15.7687V151.515H8.19295V143.939ZM23.3445 143.939H30.9202V151.515H23.3445V143.939ZM30.9202 143.939H38.496V151.515H30.9202V143.939ZM38.496 143.939H46.0717V151.515H38.496V143.939ZM53.6475 143.939H61.2232V151.515H53.6475V143.939ZM106.678 143.939H114.254V151.515H106.678V143.939ZM114.254 143.939H121.829V151.515H114.254V143.939ZM136.981 143.939H144.557V151.515H136.981V143.939ZM152.132 143.939H159.708V151.515H152.132V143.939ZM167.284 143.939H174.86V151.515H167.284V143.939ZM197.587 143.939H205.163V151.515H197.587V143.939ZM212.738 143.939H220.314V151.515H212.738V143.939ZM235.466 143.939H243.041V151.515H235.466V143.939ZM0.617188 151.515H8.19295V159.091H0.617188V151.515ZM23.3445 151.515H30.9202V159.091H23.3445V151.515ZM38.496 151.515H46.0717V159.091H38.496V151.515ZM46.0717 151.515H53.6475V159.091H46.0717V151.515ZM76.3748 151.515H83.9505V159.091H76.3748V151.515ZM91.5263 151.515H99.102V159.091H91.5263V151.515ZM114.254 151.515H121.829V159.091H114.254V151.515ZM129.405 151.515H136.981V159.091H129.405V151.515ZM136.981 151.515H144.557V159.091H136.981V151.515ZM144.557 151.515H152.132V159.091H144.557V151.515ZM167.284 151.515H174.86V159.091H167.284V151.515ZM182.435 151.515H190.011V159.091H182.435V151.515ZM197.587 151.515H205.163V159.091H197.587V151.515ZM235.466 151.515H243.041V159.091H235.466V151.515ZM0.617188 159.091H8.19295V166.667H0.617188V159.091ZM8.19295 159.091H15.7687V166.667H8.19295V159.091ZM30.9202 159.091H38.496V166.667H30.9202V159.091ZM53.6475 159.091H61.2232V166.667H53.6475V159.091ZM68.799 159.091H76.3748V166.667H68.799V159.091ZM76.3748 159.091H83.9505V166.667H76.3748V159.091ZM91.5263 159.091H99.102V166.667H91.5263V159.091ZM99.102 159.091H106.678V166.667H99.102V159.091ZM106.678 159.091H114.254V166.667H106.678V159.091ZM114.254 159.091H121.829V166.667H114.254V159.091ZM136.981 159.091H144.557V166.667H136.981V159.091ZM144.557 159.091H152.132V166.667H144.557V159.091ZM152.132 159.091H159.708V166.667H152.132V159.091ZM182.435 159.091H190.011V166.667H182.435V159.091ZM190.011 159.091H197.587V166.667H190.011V159.091ZM205.163 159.091H212.738V166.667H205.163V159.091ZM220.314 159.091H227.89V166.667H220.314V159.091ZM227.89 159.091H235.466V166.667H227.89V159.091ZM243.041 159.091H250.617V166.667H243.041V159.091ZM15.7687 166.667H23.3445V174.242H15.7687V166.667ZM30.9202 166.667H38.496V174.242H30.9202V166.667ZM46.0717 166.667H53.6475V174.242H46.0717V166.667ZM53.6475 166.667H61.2232V174.242H53.6475V166.667ZM68.799 166.667H76.3748V174.242H68.799V166.667ZM91.5263 166.667H99.102V174.242H91.5263V166.667ZM129.405 166.667H136.981V174.242H129.405V166.667ZM136.981 166.667H144.557V174.242H136.981V166.667ZM152.132 166.667H159.708V174.242H152.132V166.667ZM159.708 166.667H167.284V174.242H159.708V166.667ZM174.86 166.667H182.435V174.242H174.86V166.667ZM197.587 166.667H205.163V174.242H197.587V166.667ZM205.163 166.667H212.738V174.242H205.163V166.667ZM220.314 166.667H227.89V174.242H220.314V166.667ZM227.89 166.667H235.466V174.242H227.89V166.667ZM235.466 166.667H243.041V174.242H235.466V166.667ZM15.7687 174.242H23.3445V181.818H15.7687V174.242ZM23.3445 174.242H30.9202V181.818H23.3445V174.242ZM53.6475 174.242H61.2232V181.818H53.6475V174.242ZM68.799 174.242H76.3748V181.818H68.799V174.242ZM99.102 174.242H106.678V181.818H99.102V174.242ZM114.254 174.242H121.829V181.818H114.254V174.242ZM121.829 174.242H129.405V181.818H121.829V174.242ZM136.981 174.242H144.557V181.818H136.981V174.242ZM159.708 174.242H167.284V181.818H159.708V174.242ZM167.284 174.242H174.86V181.818H167.284V174.242ZM174.86 174.242H182.435V181.818H174.86V174.242ZM182.435 174.242H190.011V181.818H182.435V174.242ZM212.738 174.242H220.314V181.818H212.738V174.242ZM220.314 174.242H227.89V181.818H220.314V174.242ZM243.041 174.242H250.617V181.818H243.041V174.242ZM0.617188 181.818H8.19295V189.394H0.617188V181.818ZM8.19295 181.818H15.7687V189.394H8.19295V181.818ZM23.3445 181.818H30.9202V189.394H23.3445V181.818ZM38.496 181.818H46.0717V189.394H38.496V181.818ZM46.0717 181.818H53.6475V189.394H46.0717V181.818ZM53.6475 181.818H61.2232V189.394H53.6475V181.818ZM68.799 181.818H76.3748V189.394H68.799V181.818ZM76.3748 181.818H83.9505V189.394H76.3748V181.818ZM83.9505 181.818H91.5263V189.394H83.9505V181.818ZM91.5263 181.818H99.102V189.394H91.5263V181.818ZM106.678 181.818H114.254V189.394H106.678V181.818ZM136.981 181.818H144.557V189.394H136.981V181.818ZM144.557 181.818H152.132V189.394H144.557V181.818ZM152.132 181.818H159.708V189.394H152.132V181.818ZM159.708 181.818H167.284V189.394H159.708V181.818ZM167.284 181.818H174.86V189.394H167.284V181.818ZM182.435 181.818H190.011V189.394H182.435V181.818ZM190.011 181.818H197.587V189.394H190.011V181.818ZM197.587 181.818H205.163V189.394H197.587V181.818ZM205.163 181.818H212.738V189.394H205.163V181.818ZM212.738 181.818H220.314V189.394H212.738V181.818ZM220.314 181.818H227.89V189.394H220.314V181.818ZM235.466 181.818H243.041V189.394H235.466V181.818ZM243.041 181.818H250.617V189.394H243.041V181.818ZM61.2232 189.394H68.799V196.97H61.2232V189.394ZM76.3748 189.394H83.9505V196.97H76.3748V189.394ZM83.9505 189.394H91.5263V196.97H83.9505V189.394ZM114.254 189.394H121.829V196.97H114.254V189.394ZM129.405 189.394H136.981V196.97H129.405V189.394ZM136.981 189.394H144.557V196.97H136.981V189.394ZM182.435 189.394H190.011V196.97H182.435V189.394ZM212.738 189.394H220.314V196.97H212.738V189.394ZM235.466 189.394H243.041V196.97H235.466V189.394ZM0.617188 196.97H8.19295V204.545H0.617188V196.97ZM8.19295 196.97H15.7687V204.545H8.19295V196.97ZM15.7687 196.97H23.3445V204.545H15.7687V196.97ZM23.3445 196.97H30.9202V204.545H23.3445V196.97ZM30.9202 196.97H38.496V204.545H30.9202V196.97ZM38.496 196.97H46.0717V204.545H38.496V196.97ZM46.0717 196.97H53.6475V204.545H46.0717V196.97ZM76.3748 196.97H83.9505V204.545H76.3748V196.97ZM91.5263 196.97H99.102V204.545H91.5263V196.97ZM99.102 196.97H106.678V204.545H99.102V196.97ZM114.254 196.97H121.829V204.545H114.254V196.97ZM159.708 196.97H167.284V204.545H159.708V196.97ZM167.284 196.97H174.86V204.545H167.284V196.97ZM182.435 196.97H190.011V204.545H182.435V196.97ZM197.587 196.97H205.163V204.545H197.587V196.97ZM212.738 196.97H220.314V204.545H212.738V196.97ZM235.466 196.97H243.041V204.545H235.466V196.97ZM0.617188 204.545H8.19295V212.121H0.617188V204.545ZM46.0717 204.545H53.6475V212.121H46.0717V204.545ZM68.799 204.545H76.3748V212.121H68.799V204.545ZM76.3748 204.545H83.9505V212.121H76.3748V204.545ZM83.9505 204.545H91.5263V212.121H83.9505V204.545ZM121.829 204.545H129.405V212.121H121.829V204.545ZM152.132 204.545H159.708V212.121H152.132V204.545ZM159.708 204.545H167.284V212.121H159.708V204.545ZM182.435 204.545H190.011V212.121H182.435V204.545ZM212.738 204.545H220.314V212.121H212.738V204.545ZM0.617188 212.121H8.19295V219.697H0.617188V212.121ZM15.7687 212.121H23.3445V219.697H15.7687V212.121ZM23.3445 212.121H30.9202V219.697H23.3445V212.121ZM30.9202 212.121H38.496V219.697H30.9202V212.121ZM46.0717 212.121H53.6475V219.697H46.0717V212.121ZM61.2232 212.121H68.799V219.697H61.2232V212.121ZM68.799 212.121H76.3748V219.697H68.799V212.121ZM76.3748 212.121H83.9505V219.697H76.3748V212.121ZM99.102 212.121H106.678V219.697H99.102V212.121ZM106.678 212.121H114.254V219.697H106.678V212.121ZM129.405 212.121H136.981V219.697H129.405V212.121ZM136.981 212.121H144.557V219.697H136.981V212.121ZM144.557 212.121H152.132V219.697H144.557V212.121ZM152.132 212.121H159.708V219.697H152.132V212.121ZM182.435 212.121H190.011V219.697H182.435V212.121ZM190.011 212.121H197.587V219.697H190.011V212.121ZM197.587 212.121H205.163V219.697H197.587V212.121ZM205.163 212.121H212.738V219.697H205.163V212.121ZM212.738 212.121H220.314V219.697H212.738V212.121ZM235.466 212.121H243.041V219.697H235.466V212.121ZM243.041 212.121H250.617V219.697H243.041V212.121ZM0.617188 219.697H8.19295V227.273H0.617188V219.697ZM15.7687 219.697H23.3445V227.273H15.7687V219.697ZM23.3445 219.697H30.9202V227.273H23.3445V219.697ZM30.9202 219.697H38.496V227.273H30.9202V219.697ZM46.0717 219.697H53.6475V227.273H46.0717V219.697ZM68.799 219.697H76.3748V227.273H68.799V219.697ZM91.5263 219.697H99.102V227.273H91.5263V219.697ZM99.102 219.697H106.678V227.273H99.102V219.697ZM136.981 219.697H144.557V227.273H136.981V219.697ZM144.557 219.697H152.132V227.273H144.557V219.697ZM159.708 219.697H167.284V227.273H159.708V219.697ZM167.284 219.697H174.86V227.273H167.284V219.697ZM197.587 219.697H205.163V227.273H197.587V219.697ZM205.163 219.697H212.738V227.273H205.163V219.697ZM212.738 219.697H220.314V227.273H212.738V219.697ZM220.314 219.697H227.89V227.273H220.314V219.697ZM227.89 219.697H235.466V227.273H227.89V219.697ZM235.466 219.697H243.041V227.273H235.466V219.697ZM0.617188 227.273H8.19295V234.848H0.617188V227.273ZM15.7687 227.273H23.3445V234.848H15.7687V227.273ZM23.3445 227.273H30.9202V234.848H23.3445V227.273ZM30.9202 227.273H38.496V234.848H30.9202V227.273ZM46.0717 227.273H53.6475V234.848H46.0717V227.273ZM68.799 227.273H76.3748V234.848H68.799V227.273ZM76.3748 227.273H83.9505V234.848H76.3748V227.273ZM106.678 227.273H114.254V234.848H106.678V227.273ZM114.254 227.273H121.829V234.848H114.254V227.273ZM121.829 227.273H129.405V234.848H121.829V227.273ZM129.405 227.273H136.981V234.848H129.405V227.273ZM136.981 227.273H144.557V234.848H136.981V227.273ZM144.557 227.273H152.132V234.848H144.557V227.273ZM174.86 227.273H182.435V234.848H174.86V227.273ZM182.435 227.273H190.011V234.848H182.435V227.273ZM205.163 227.273H212.738V234.848H205.163V227.273ZM212.738 227.273H220.314V234.848H212.738V227.273ZM227.89 227.273H235.466V234.848H227.89V227.273ZM0.617188 234.848H8.19295V242.424H0.617188V234.848ZM46.0717 234.848H53.6475V242.424H46.0717V234.848ZM61.2232 234.848H68.799V242.424H61.2232V234.848ZM68.799 234.848H76.3748V242.424H68.799V234.848ZM76.3748 234.848H83.9505V242.424H76.3748V234.848ZM91.5263 234.848H99.102V242.424H91.5263V234.848ZM114.254 234.848H121.829V242.424H114.254V234.848ZM121.829 234.848H129.405V242.424H121.829V234.848ZM129.405 234.848H136.981V242.424H129.405V234.848ZM136.981 234.848H144.557V242.424H136.981V234.848ZM144.557 234.848H152.132V242.424H144.557V234.848ZM152.132 234.848H159.708V242.424H152.132V234.848ZM159.708 234.848H167.284V242.424H159.708V234.848ZM167.284 234.848H174.86V242.424H167.284V234.848ZM174.86 234.848H182.435V242.424H174.86V234.848ZM182.435 234.848H190.011V242.424H182.435V234.848ZM190.011 234.848H197.587V242.424H190.011V234.848ZM197.587 234.848H205.163V242.424H197.587V234.848ZM0.617188 242.424H8.19295V250H0.617188V242.424ZM8.19295 242.424H15.7687V250H8.19295V242.424ZM15.7687 242.424H23.3445V250H15.7687V242.424ZM23.3445 242.424H30.9202V250H23.3445V242.424ZM30.9202 242.424H38.496V250H30.9202V242.424ZM38.496 242.424H46.0717V250H38.496V242.424ZM46.0717 242.424H53.6475V250H46.0717V242.424ZM68.799 242.424H76.3748V250H68.799V242.424ZM83.9505 242.424H91.5263V250H83.9505V242.424ZM121.829 242.424H129.405V250H121.829V242.424ZM152.132 242.424H159.708V250H152.132V242.424ZM167.284 242.424H174.86V250H167.284V242.424ZM174.86 242.424H182.435V250H174.86V242.424ZM182.435 242.424H190.011V250H182.435V242.424ZM190.011 242.424H197.587V250H190.011V242.424ZM227.89 242.424H235.466V250H227.89V242.424ZM243.041 242.424H250.617V250H243.041V242.424Z" fill="white"/>
</svg>
