<svg width="250" height="251" viewBox="0 0 250 251" fill="none" xmlns="http://www.w3.org/2000/svg">
<path d="M0 0.482178H7.57576V8.05794H0V0.482178ZM7.57576 0.482178H15.1515V8.05794H7.57576V0.482178ZM15.1515 0.482178H22.7273V8.05794H15.1515V0.482178ZM22.7273 0.482178H30.303V8.05794H22.7273V0.482178ZM30.303 0.482178H37.8788V8.05794H30.303V0.482178ZM37.8788 0.482178H45.4545V8.05794H37.8788V0.482178ZM45.4545 0.482178H53.0303V8.05794H45.4545V0.482178ZM68.1818 0.482178H75.7576V8.05794H68.1818V0.482178ZM75.7576 0.482178H83.3333V8.05794H75.7576V0.482178ZM83.3333 0.482178H90.9091V8.05794H83.3333V0.482178ZM90.9091 0.482178H98.4848V8.05794H90.9091V0.482178ZM113.636 0.482178H121.212V8.05794H113.636V0.482178ZM128.788 0.482178H136.364V8.05794H128.788V0.482178ZM136.364 0.482178H143.939V8.05794H136.364V0.482178ZM159.091 0.482178H166.667V8.05794H159.091V0.482178ZM166.667 0.482178H174.242V8.05794H166.667V0.482178ZM174.242 0.482178H181.818V8.05794H174.242V0.482178ZM181.818 0.482178H189.394V8.05794H181.818V0.482178ZM196.97 0.482178H204.545V8.05794H196.97V0.482178ZM204.545 0.482178H212.121V8.05794H204.545V0.482178ZM212.121 0.482178H219.697V8.05794H212.121V0.482178ZM219.697 0.482178H227.273V8.05794H219.697V0.482178ZM227.273 0.482178H234.848V8.05794H227.273V0.482178ZM234.848 0.482178H242.424V8.05794H234.848V0.482178ZM242.424 0.482178H250V8.05794H242.424V0.482178ZM0 8.05794H7.57576V15.6337H0V8.05794ZM45.4545 8.05794H53.0303V15.6337H45.4545V8.05794ZM68.1818 8.05794H75.7576V15.6337H68.1818V8.05794ZM75.7576 8.05794H83.3333V15.6337H75.7576V8.05794ZM113.636 8.05794H121.212V15.6337H113.636V8.05794ZM128.788 8.05794H136.364V15.6337H128.788V8.05794ZM143.939 8.05794H151.515V15.6337H143.939V8.05794ZM159.091 8.05794H166.667V15.6337H159.091V8.05794ZM166.667 8.05794H174.242V15.6337H166.667V8.05794ZM181.818 8.05794H189.394V15.6337H181.818V8.05794ZM196.97 8.05794H204.545V15.6337H196.97V8.05794ZM242.424 8.05794H250V15.6337H242.424V8.05794ZM0 15.6337H7.57576V23.2095H0V15.6337ZM15.1515 15.6337H22.7273V23.2095H15.1515V15.6337ZM22.7273 15.6337H30.303V23.2095H22.7273V15.6337ZM30.303 15.6337H37.8788V23.2095H30.303V15.6337ZM45.4545 15.6337H53.0303V23.2095H45.4545V15.6337ZM60.6061 15.6337H68.1818V23.2095H60.6061V15.6337ZM68.1818 15.6337H75.7576V23.2095H68.1818V15.6337ZM83.3333 15.6337H90.9091V23.2095H83.3333V15.6337ZM98.4848 15.6337H106.061V23.2095H98.4848V15.6337ZM113.636 15.6337H121.212V23.2095H113.636V15.6337ZM121.212 15.6337H128.788V23.2095H121.212V15.6337ZM143.939 15.6337H151.515V23.2095H143.939V15.6337ZM166.667 15.6337H174.242V23.2095H166.667V15.6337ZM174.242 15.6337H181.818V23.2095H174.242V15.6337ZM181.818 15.6337H189.394V23.2095H181.818V15.6337ZM196.97 15.6337H204.545V23.2095H196.97V15.6337ZM212.121 15.6337H219.697V23.2095H212.121V15.6337ZM219.697 15.6337H227.273V23.2095H219.697V15.6337ZM227.273 15.6337H234.848V23.2095H227.273V15.6337ZM242.424 15.6337H250V23.2095H242.424V15.6337ZM0 23.2095H7.57576V30.7852H0V23.2095ZM15.1515 23.2095H22.7273V30.7852H15.1515V23.2095ZM22.7273 23.2095H30.303V30.7852H22.7273V23.2095ZM30.303 23.2095H37.8788V30.7852H30.303V23.2095ZM45.4545 23.2095H53.0303V30.7852H45.4545V23.2095ZM106.061 23.2095H113.636V30.7852H106.061V23.2095ZM121.212 23.2095H128.788V30.7852H121.212V23.2095ZM128.788 23.2095H136.364V30.7852H128.788V23.2095ZM136.364 23.2095H143.939V30.7852H136.364V23.2095ZM143.939 23.2095H151.515V30.7852H143.939V23.2095ZM151.515 23.2095H159.091V30.7852H151.515V23.2095ZM159.091 23.2095H166.667V30.7852H159.091V23.2095ZM174.242 23.2095H181.818V30.7852H174.242V23.2095ZM181.818 23.2095H189.394V30.7852H181.818V23.2095ZM196.97 23.2095H204.545V30.7852H196.97V23.2095ZM212.121 23.2095H219.697V30.7852H212.121V23.2095ZM219.697 23.2095H227.273V30.7852H219.697V23.2095ZM227.273 23.2095H234.848V30.7852H227.273V23.2095ZM242.424 23.2095H250V30.7852H242.424V23.2095ZM0 30.7852H7.57576V38.361H0V30.7852ZM15.1515 30.7852H22.7273V38.361H15.1515V30.7852ZM22.7273 30.7852H30.303V38.361H22.7273V30.7852ZM30.303 30.7852H37.8788V38.361H30.303V30.7852ZM45.4545 30.7852H53.0303V38.361H45.4545V30.7852ZM60.6061 30.7852H68.1818V38.361H60.6061V30.7852ZM68.1818 30.7852H75.7576V38.361H68.1818V30.7852ZM75.7576 30.7852H83.3333V38.361H75.7576V30.7852ZM83.3333 30.7852H90.9091V38.361H83.3333V30.7852ZM128.788 30.7852H136.364V38.361H128.788V30.7852ZM136.364 30.7852H143.939V38.361H136.364V30.7852ZM143.939 30.7852H151.515V38.361H143.939V30.7852ZM151.515 30.7852H159.091V38.361H151.515V30.7852ZM181.818 30.7852H189.394V38.361H181.818V30.7852ZM196.97 30.7852H204.545V38.361H196.97V30.7852ZM212.121 30.7852H219.697V38.361H212.121V30.7852ZM219.697 30.7852H227.273V38.361H219.697V30.7852ZM227.273 30.7852H234.848V38.361H227.273V30.7852ZM242.424 30.7852H250V38.361H242.424V30.7852ZM0 38.361H7.57576V45.9367H0V38.361ZM45.4545 38.361H53.0303V45.9367H45.4545V38.361ZM60.6061 38.361H68.1818V45.9367H60.6061V38.361ZM75.7576 38.361H83.3333V45.9367H75.7576V38.361ZM90.9091 38.361H98.4848V45.9367H90.9091V38.361ZM98.4848 38.361H106.061V45.9367H98.4848V38.361ZM136.364 38.361H143.939V45.9367H136.364V38.361ZM143.939 38.361H151.515V45.9367H143.939V38.361ZM159.091 38.361H166.667V45.9367H159.091V38.361ZM196.97 38.361H204.545V45.9367H196.97V38.361ZM242.424 38.361H250V45.9367H242.424V38.361ZM0 45.9367H7.57576V53.5125H0V45.9367ZM7.57576 45.9367H15.1515V53.5125H7.57576V45.9367ZM15.1515 45.9367H22.7273V53.5125H15.1515V45.9367ZM22.7273 45.9367H30.303V53.5125H22.7273V45.9367ZM30.303 45.9367H37.8788V53.5125H30.303V45.9367ZM37.8788 45.9367H45.4545V53.5125H37.8788V45.9367ZM45.4545 45.9367H53.0303V53.5125H45.4545V45.9367ZM60.6061 45.9367H68.1818V53.5125H60.6061V45.9367ZM75.7576 45.9367H83.3333V53.5125H75.7576V45.9367ZM90.9091 45.9367H98.4848V53.5125H90.9091V45.9367ZM106.061 45.9367H113.636V53.5125H106.061V45.9367ZM121.212 45.9367H128.788V53.5125H121.212V45.9367ZM136.364 45.9367H143.939V53.5125H136.364V45.9367ZM151.515 45.9367H159.091V53.5125H151.515V45.9367ZM166.667 45.9367H174.242V53.5125H166.667V45.9367ZM181.818 45.9367H189.394V53.5125H181.818V45.9367ZM196.97 45.9367H204.545V53.5125H196.97V45.9367ZM204.545 45.9367H212.121V53.5125H204.545V45.9367ZM212.121 45.9367H219.697V53.5125H212.121V45.9367ZM219.697 45.9367H227.273V53.5125H219.697V45.9367ZM227.273 45.9367H234.848V53.5125H227.273V45.9367ZM234.848 45.9367H242.424V53.5125H234.848V45.9367ZM242.424 45.9367H250V53.5125H242.424V45.9367ZM68.1818 53.5125H75.7576V61.0882H68.1818V53.5125ZM128.788 53.5125H136.364V61.0882H128.788V53.5125ZM159.091 53.5125H166.667V61.0882H159.091V53.5125ZM166.667 53.5125H174.242V61.0882H166.667V53.5125ZM174.242 53.5125H181.818V61.0882H174.242V53.5125ZM7.57576 61.0882H15.1515V68.664H7.57576V61.0882ZM30.303 61.0882H37.8788V68.664H30.303V61.0882ZM45.4545 61.0882H53.0303V68.664H45.4545V61.0882ZM60.6061 61.0882H68.1818V68.664H60.6061V61.0882ZM68.1818 61.0882H75.7576V68.664H68.1818V61.0882ZM83.3333 61.0882H90.9091V68.664H83.3333V61.0882ZM98.4848 61.0882H106.061V68.664H98.4848V61.0882ZM106.061 61.0882H113.636V68.664H106.061V61.0882ZM121.212 61.0882H128.788V68.664H121.212V61.0882ZM143.939 61.0882H151.515V68.664H143.939V61.0882ZM151.515 61.0882H159.091V68.664H151.515V61.0882ZM166.667 61.0882H174.242V68.664H166.667V61.0882ZM189.394 61.0882H196.97V68.664H189.394V61.0882ZM204.545 61.0882H212.121V68.664H204.545V61.0882ZM212.121 61.0882H219.697V68.664H212.121V61.0882ZM227.273 61.0882H234.848V68.664H227.273V61.0882ZM0 68.664H7.57576V76.2398H0V68.664ZM15.1515 68.664H22.7273V76.2398H15.1515V68.664ZM30.303 68.664H37.8788V76.2398H30.303V68.664ZM37.8788 68.664H45.4545V76.2398H37.8788V68.664ZM53.0303 68.664H60.6061V76.2398H53.0303V68.664ZM60.6061 68.664H68.1818V76.2398H60.6061V68.664ZM75.7576 68.664H83.3333V76.2398H75.7576V68.664ZM98.4848 68.664H106.061V76.2398H98.4848V68.664ZM106.061 68.664H113.636V76.2398H106.061V68.664ZM121.212 68.664H128.788V76.2398H121.212V68.664ZM143.939 68.664H151.515V76.2398H143.939V68.664ZM166.667 68.664H174.242V76.2398H166.667V68.664ZM174.242 68.664H181.818V76.2398H174.242V68.664ZM196.97 68.664H204.545V76.2398H196.97V68.664ZM204.545 68.664H212.121V76.2398H204.545V68.664ZM227.273 68.664H234.848V76.2398H227.273V68.664ZM7.57576 76.2398H15.1515V83.8155H7.57576V76.2398ZM37.8788 76.2398H45.4545V83.8155H37.8788V76.2398ZM45.4545 76.2398H53.0303V83.8155H45.4545V76.2398ZM53.0303 76.2398H60.6061V83.8155H53.0303V76.2398ZM60.6061 76.2398H68.1818V83.8155H60.6061V76.2398ZM68.1818 76.2398H75.7576V83.8155H68.1818V76.2398ZM83.3333 76.2398H90.9091V83.8155H83.3333V76.2398ZM106.061 76.2398H113.636V83.8155H106.061V76.2398ZM121.212 76.2398H128.788V83.8155H121.212V76.2398ZM128.788 76.2398H136.364V83.8155H128.788V76.2398ZM159.091 76.2398H166.667V83.8155H159.091V76.2398ZM166.667 76.2398H174.242V83.8155H166.667V76.2398ZM174.242 76.2398H181.818V83.8155H174.242V76.2398ZM181.818 76.2398H189.394V83.8155H181.818V76.2398ZM196.97 76.2398H204.545V83.8155H196.97V76.2398ZM212.121 76.2398H219.697V83.8155H212.121V76.2398ZM219.697 76.2398H227.273V83.8155H219.697V76.2398ZM227.273 76.2398H234.848V83.8155H227.273V76.2398ZM0 83.8155H7.57576V91.3913H0V83.8155ZM30.303 83.8155H37.8788V91.3913H30.303V83.8155ZM37.8788 83.8155H45.4545V91.3913H37.8788V83.8155ZM53.0303 83.8155H60.6061V91.3913H53.0303V83.8155ZM68.1818 83.8155H75.7576V91.3913H68.1818V83.8155ZM83.3333 83.8155H90.9091V91.3913H83.3333V83.8155ZM98.4848 83.8155H106.061V91.3913H98.4848V83.8155ZM128.788 83.8155H136.364V91.3913H128.788V83.8155ZM136.364 83.8155H143.939V91.3913H136.364V83.8155ZM143.939 83.8155H151.515V91.3913H143.939V83.8155ZM159.091 83.8155H166.667V91.3913H159.091V83.8155ZM174.242 83.8155H181.818V91.3913H174.242V83.8155ZM181.818 83.8155H189.394V91.3913H181.818V83.8155ZM7.57576 91.3913H15.1515V98.967H7.57576V91.3913ZM15.1515 91.3913H22.7273V98.967H15.1515V91.3913ZM22.7273 91.3913H30.303V98.967H22.7273V91.3913ZM45.4545 91.3913H53.0303V98.967H45.4545V91.3913ZM53.0303 91.3913H60.6061V98.967H53.0303V91.3913ZM60.6061 91.3913H68.1818V98.967H60.6061V91.3913ZM83.3333 91.3913H90.9091V98.967H83.3333V91.3913ZM90.9091 91.3913H98.4848V98.967H90.9091V91.3913ZM98.4848 91.3913H106.061V98.967H98.4848V91.3913ZM121.212 91.3913H128.788V98.967H121.212V91.3913ZM136.364 91.3913H143.939V98.967H136.364V91.3913ZM151.515 91.3913H159.091V98.967H151.515V91.3913ZM181.818 91.3913H189.394V98.967H181.818V91.3913ZM196.97 91.3913H204.545V98.967H196.97V91.3913ZM204.545 91.3913H212.121V98.967H204.545V91.3913ZM212.121 91.3913H219.697V98.967H212.121V91.3913ZM219.697 91.3913H227.273V98.967H219.697V91.3913ZM227.273 91.3913H234.848V98.967H227.273V91.3913ZM234.848 91.3913H242.424V98.967H234.848V91.3913ZM30.303 98.967H37.8788V106.543H30.303V98.967ZM37.8788 98.967H45.4545V106.543H37.8788V98.967ZM83.3333 98.967H90.9091V106.543H83.3333V98.967ZM128.788 98.967H136.364V106.543H128.788V98.967ZM143.939 98.967H151.515V106.543H143.939V98.967ZM166.667 98.967H174.242V106.543H166.667V98.967ZM204.545 98.967H212.121V106.543H204.545V98.967ZM234.848 98.967H242.424V106.543H234.848V98.967ZM242.424 98.967H250V106.543H242.424V98.967ZM0 106.543H7.57576V114.119H0V106.543ZM7.57576 106.543H15.1515V114.119H7.57576V106.543ZM15.1515 106.543H22.7273V114.119H15.1515V106.543ZM22.7273 106.543H30.303V114.119H22.7273V106.543ZM45.4545 106.543H53.0303V114.119H45.4545V106.543ZM53.0303 106.543H60.6061V114.119H53.0303V106.543ZM60.6061 106.543H68.1818V114.119H60.6061V106.543ZM68.1818 106.543H75.7576V114.119H68.1818V106.543ZM75.7576 106.543H83.3333V114.119H75.7576V106.543ZM90.9091 106.543H98.4848V114.119H90.9091V106.543ZM128.788 106.543H136.364V114.119H128.788V106.543ZM143.939 106.543H151.515V114.119H143.939V106.543ZM159.091 106.543H166.667V114.119H159.091V106.543ZM189.394 106.543H196.97V114.119H189.394V106.543ZM204.545 106.543H212.121V114.119H204.545V106.543ZM212.121 106.543H219.697V114.119H212.121V106.543ZM219.697 106.543H227.273V114.119H219.697V106.543ZM234.848 106.543H242.424V114.119H234.848V106.543ZM7.57576 114.119H15.1515V121.694H7.57576V114.119ZM22.7273 114.119H30.303V121.694H22.7273V114.119ZM37.8788 114.119H45.4545V121.694H37.8788V114.119ZM53.0303 114.119H60.6061V121.694H53.0303V114.119ZM60.6061 114.119H68.1818V121.694H60.6061V114.119ZM75.7576 114.119H83.3333V121.694H75.7576V114.119ZM83.3333 114.119H90.9091V121.694H83.3333V114.119ZM98.4848 114.119H106.061V121.694H98.4848V114.119ZM106.061 114.119H113.636V121.694H106.061V114.119ZM113.636 114.119H121.212V121.694H113.636V114.119ZM136.364 114.119H143.939V121.694H136.364V114.119ZM143.939 114.119H151.515V121.694H143.939V114.119ZM151.515 114.119H159.091V121.694H151.515V114.119ZM159.091 114.119H166.667V121.694H159.091V114.119ZM166.667 114.119H174.242V121.694H166.667V114.119ZM181.818 114.119H189.394V121.694H181.818V114.119ZM189.394 114.119H196.97V121.694H189.394V114.119ZM196.97 114.119H204.545V121.694H196.97V114.119ZM212.121 114.119H219.697V121.694H212.121V114.119ZM219.697 114.119H227.273V121.694H219.697V114.119ZM7.57576 121.694H15.1515V129.27H7.57576V121.694ZM15.1515 121.694H22.7273V129.27H15.1515V121.694ZM22.7273 121.694H30.303V129.27H22.7273V121.694ZM37.8788 121.694H45.4545V129.27H37.8788V121.694ZM45.4545 121.694H53.0303V129.27H45.4545V121.694ZM75.7576 121.694H83.3333V129.27H75.7576V121.694ZM90.9091 121.694H98.4848V129.27H90.9091V121.694ZM98.4848 121.694H106.061V129.27H98.4848V121.694ZM106.061 121.694H113.636V129.27H106.061V121.694ZM113.636 121.694H121.212V129.27H113.636V121.694ZM128.788 121.694H136.364V129.27H128.788V121.694ZM136.364 121.694H143.939V129.27H136.364V121.694ZM159.091 121.694H166.667V129.27H159.091V121.694ZM166.667 121.694H174.242V129.27H166.667V121.694ZM174.242 121.694H181.818V129.27H174.242V121.694ZM181.818 121.694H189.394V129.27H181.818V121.694ZM196.97 121.694H204.545V129.27H196.97V121.694ZM212.121 121.694H219.697V129.27H212.121V121.694ZM219.697 121.694H227.273V129.27H219.697V121.694ZM242.424 121.694H250V129.27H242.424V121.694ZM0 129.27H7.57576V136.846H0V129.27ZM15.1515 129.27H22.7273V136.846H15.1515V129.27ZM37.8788 129.27H45.4545V136.846H37.8788V129.27ZM53.0303 129.27H60.6061V136.846H53.0303V129.27ZM68.1818 129.27H75.7576V136.846H68.1818V129.27ZM75.7576 129.27H83.3333V136.846H75.7576V129.27ZM98.4848 129.27H106.061V136.846H98.4848V129.27ZM106.061 129.27H113.636V136.846H106.061V129.27ZM128.788 129.27H136.364V136.846H128.788V129.27ZM159.091 129.27H166.667V136.846H159.091V129.27ZM174.242 129.27H181.818V136.846H174.242V129.27ZM189.394 129.27H196.97V136.846H189.394V129.27ZM204.545 129.27H212.121V136.846H204.545V129.27ZM242.424 129.27H250V136.846H242.424V129.27ZM7.57576 136.846H15.1515V144.422H7.57576V136.846ZM15.1515 136.846H22.7273V144.422H15.1515V136.846ZM22.7273 136.846H30.303V144.422H22.7273V136.846ZM30.303 136.846H37.8788V144.422H30.303V136.846ZM37.8788 136.846H45.4545V144.422H37.8788V136.846ZM45.4545 136.846H53.0303V144.422H45.4545V136.846ZM60.6061 136.846H68.1818V144.422H60.6061V136.846ZM75.7576 136.846H83.3333V144.422H75.7576V136.846ZM98.4848 136.846H106.061V144.422H98.4848V136.846ZM128.788 136.846H136.364V144.422H128.788V136.846ZM174.242 136.846H181.818V144.422H174.242V136.846ZM181.818 136.846H189.394V144.422H181.818V136.846ZM204.545 136.846H212.121V144.422H204.545V136.846ZM219.697 136.846H227.273V144.422H219.697V136.846ZM234.848 136.846H242.424V144.422H234.848V136.846ZM0 144.422H7.57576V151.997H0V144.422ZM7.57576 144.422H15.1515V151.997H7.57576V144.422ZM22.7273 144.422H30.303V151.997H22.7273V144.422ZM30.303 144.422H37.8788V151.997H30.303V144.422ZM37.8788 144.422H45.4545V151.997H37.8788V144.422ZM53.0303 144.422H60.6061V151.997H53.0303V144.422ZM106.061 144.422H113.636V151.997H106.061V144.422ZM113.636 144.422H121.212V151.997H113.636V144.422ZM136.364 144.422H143.939V151.997H136.364V144.422ZM151.515 144.422H159.091V151.997H151.515V144.422ZM166.667 144.422H174.242V151.997H166.667V144.422ZM196.97 144.422H204.545V151.997H196.97V144.422ZM212.121 144.422H219.697V151.997H212.121V144.422ZM234.848 144.422H242.424V151.997H234.848V144.422ZM0 151.997H7.57576V159.573H0V151.997ZM22.7273 151.997H30.303V159.573H22.7273V151.997ZM37.8788 151.997H45.4545V159.573H37.8788V151.997ZM45.4545 151.997H53.0303V159.573H45.4545V151.997ZM75.7576 151.997H83.3333V159.573H75.7576V151.997ZM90.9091 151.997H98.4848V159.573H90.9091V151.997ZM113.636 151.997H121.212V159.573H113.636V151.997ZM128.788 151.997H136.364V159.573H128.788V151.997ZM136.364 151.997H143.939V159.573H136.364V151.997ZM143.939 151.997H151.515V159.573H143.939V151.997ZM166.667 151.997H174.242V159.573H166.667V151.997ZM181.818 151.997H189.394V159.573H181.818V151.997ZM196.97 151.997H204.545V159.573H196.97V151.997ZM234.848 151.997H242.424V159.573H234.848V151.997ZM0 159.573H7.57576V167.149H0V159.573ZM7.57576 159.573H15.1515V167.149H7.57576V159.573ZM30.303 159.573H37.8788V167.149H30.303V159.573ZM53.0303 159.573H60.6061V167.149H53.0303V159.573ZM68.1818 159.573H75.7576V167.149H68.1818V159.573ZM75.7576 159.573H83.3333V167.149H75.7576V159.573ZM90.9091 159.573H98.4848V167.149H90.9091V159.573ZM98.4848 159.573H106.061V167.149H98.4848V159.573ZM106.061 159.573H113.636V167.149H106.061V159.573ZM113.636 159.573H121.212V167.149H113.636V159.573ZM136.364 159.573H143.939V167.149H136.364V159.573ZM143.939 159.573H151.515V167.149H143.939V159.573ZM151.515 159.573H159.091V167.149H151.515V159.573ZM181.818 159.573H189.394V167.149H181.818V159.573ZM189.394 159.573H196.97V167.149H189.394V159.573ZM204.545 159.573H212.121V167.149H204.545V159.573ZM219.697 159.573H227.273V167.149H219.697V159.573ZM227.273 159.573H234.848V167.149H227.273V159.573ZM242.424 159.573H250V167.149H242.424V159.573ZM15.1515 167.149H22.7273V174.725H15.1515V167.149ZM30.303 167.149H37.8788V174.725H30.303V167.149ZM45.4545 167.149H53.0303V174.725H45.4545V167.149ZM53.0303 167.149H60.6061V174.725H53.0303V167.149ZM68.1818 167.149H75.7576V174.725H68.1818V167.149ZM90.9091 167.149H98.4848V174.725H90.9091V167.149ZM128.788 167.149H136.364V174.725H128.788V167.149ZM136.364 167.149H143.939V174.725H136.364V167.149ZM151.515 167.149H159.091V174.725H151.515V167.149ZM159.091 167.149H166.667V174.725H159.091V167.149ZM174.242 167.149H181.818V174.725H174.242V167.149ZM196.97 167.149H204.545V174.725H196.97V167.149ZM204.545 167.149H212.121V174.725H204.545V167.149ZM219.697 167.149H227.273V174.725H219.697V167.149ZM227.273 167.149H234.848V174.725H227.273V167.149ZM234.848 167.149H242.424V174.725H234.848V167.149ZM15.1515 174.725H22.7273V182.3H15.1515V174.725ZM22.7273 174.725H30.303V182.3H22.7273V174.725ZM53.0303 174.725H60.6061V182.3H53.0303V174.725ZM68.1818 174.725H75.7576V182.3H68.1818V174.725ZM98.4848 174.725H106.061V182.3H98.4848V174.725ZM113.636 174.725H121.212V182.3H113.636V174.725ZM121.212 174.725H128.788V182.3H121.212V174.725ZM136.364 174.725H143.939V182.3H136.364V174.725ZM159.091 174.725H166.667V182.3H159.091V174.725ZM166.667 174.725H174.242V182.3H166.667V174.725ZM174.242 174.725H181.818V182.3H174.242V174.725ZM181.818 174.725H189.394V182.3H181.818V174.725ZM212.121 174.725H219.697V182.3H212.121V174.725ZM219.697 174.725H227.273V182.3H219.697V174.725ZM242.424 174.725H250V182.3H242.424V174.725ZM0 182.3H7.57576V189.876H0V182.3ZM7.57576 182.3H15.1515V189.876H7.57576V182.3ZM22.7273 182.3H30.303V189.876H22.7273V182.3ZM37.8788 182.3H45.4545V189.876H37.8788V182.3ZM45.4545 182.3H53.0303V189.876H45.4545V182.3ZM53.0303 182.3H60.6061V189.876H53.0303V182.3ZM68.1818 182.3H75.7576V189.876H68.1818V182.3ZM75.7576 182.3H83.3333V189.876H75.7576V182.3ZM83.3333 182.3H90.9091V189.876H83.3333V182.3ZM90.9091 182.3H98.4848V189.876H90.9091V182.3ZM106.061 182.3H113.636V189.876H106.061V182.3ZM136.364 182.3H143.939V189.876H136.364V182.3ZM143.939 182.3H151.515V189.876H143.939V182.3ZM151.515 182.3H159.091V189.876H151.515V182.3ZM159.091 182.3H166.667V189.876H159.091V182.3ZM166.667 182.3H174.242V189.876H166.667V182.3ZM181.818 182.3H189.394V189.876H181.818V182.3ZM189.394 182.3H196.97V189.876H189.394V182.3ZM196.97 182.3H204.545V189.876H196.97V182.3ZM204.545 182.3H212.121V189.876H204.545V182.3ZM212.121 182.3H219.697V189.876H212.121V182.3ZM219.697 182.3H227.273V189.876H219.697V182.3ZM234.848 182.3H242.424V189.876H234.848V182.3ZM242.424 182.3H250V189.876H242.424V182.3ZM60.6061 189.876H68.1818V197.452H60.6061V189.876ZM75.7576 189.876H83.3333V197.452H75.7576V189.876ZM83.3333 189.876H90.9091V197.452H83.3333V189.876ZM113.636 189.876H121.212V197.452H113.636V189.876ZM128.788 189.876H136.364V197.452H128.788V189.876ZM136.364 189.876H143.939V197.452H136.364V189.876ZM181.818 189.876H189.394V197.452H181.818V189.876ZM212.121 189.876H219.697V197.452H212.121V189.876ZM234.848 189.876H242.424V197.452H234.848V189.876ZM0 197.452H7.57576V205.028H0V197.452ZM7.57576 197.452H15.1515V205.028H7.57576V197.452ZM15.1515 197.452H22.7273V205.028H15.1515V197.452ZM22.7273 197.452H30.303V205.028H22.7273V197.452ZM30.303 197.452H37.8788V205.028H30.303V197.452ZM37.8788 197.452H45.4545V205.028H37.8788V197.452ZM45.4545 197.452H53.0303V205.028H45.4545V197.452ZM75.7576 197.452H83.3333V205.028H75.7576V197.452ZM90.9091 197.452H98.4848V205.028H90.9091V197.452ZM98.4848 197.452H106.061V205.028H98.4848V197.452ZM113.636 197.452H121.212V205.028H113.636V197.452ZM159.091 197.452H166.667V205.028H159.091V197.452ZM166.667 197.452H174.242V205.028H166.667V197.452ZM181.818 197.452H189.394V205.028H181.818V197.452ZM196.97 197.452H204.545V205.028H196.97V197.452ZM212.121 197.452H219.697V205.028H212.121V197.452ZM234.848 197.452H242.424V205.028H234.848V197.452ZM0 205.028H7.57576V212.603H0V205.028ZM45.4545 205.028H53.0303V212.603H45.4545V205.028ZM68.1818 205.028H75.7576V212.603H68.1818V205.028ZM75.7576 205.028H83.3333V212.603H75.7576V205.028ZM83.3333 205.028H90.9091V212.603H83.3333V205.028ZM121.212 205.028H128.788V212.603H121.212V205.028ZM151.515 205.028H159.091V212.603H151.515V205.028ZM159.091 205.028H166.667V212.603H159.091V205.028ZM181.818 205.028H189.394V212.603H181.818V205.028ZM212.121 205.028H219.697V212.603H212.121V205.028ZM0 212.603H7.57576V220.179H0V212.603ZM15.1515 212.603H22.7273V220.179H15.1515V212.603ZM22.7273 212.603H30.303V220.179H22.7273V212.603ZM30.303 212.603H37.8788V220.179H30.303V212.603ZM45.4545 212.603H53.0303V220.179H45.4545V212.603ZM60.6061 212.603H68.1818V220.179H60.6061V212.603ZM68.1818 212.603H75.7576V220.179H68.1818V212.603ZM75.7576 212.603H83.3333V220.179H75.7576V212.603ZM98.4848 212.603H106.061V220.179H98.4848V212.603ZM106.061 212.603H113.636V220.179H106.061V212.603ZM128.788 212.603H136.364V220.179H128.788V212.603ZM136.364 212.603H143.939V220.179H136.364V212.603ZM143.939 212.603H151.515V220.179H143.939V212.603ZM151.515 212.603H159.091V220.179H151.515V212.603ZM181.818 212.603H189.394V220.179H181.818V212.603ZM189.394 212.603H196.97V220.179H189.394V212.603ZM196.97 212.603H204.545V220.179H196.97V212.603ZM204.545 212.603H212.121V220.179H204.545V212.603ZM212.121 212.603H219.697V220.179H212.121V212.603ZM234.848 212.603H242.424V220.179H234.848V212.603ZM242.424 212.603H250V220.179H242.424V212.603ZM0 220.179H7.57576V227.755H0V220.179ZM15.1515 220.179H22.7273V227.755H15.1515V220.179ZM22.7273 220.179H30.303V227.755H22.7273V220.179ZM30.303 220.179H37.8788V227.755H30.303V220.179ZM45.4545 220.179H53.0303V227.755H45.4545V220.179ZM68.1818 220.179H75.7576V227.755H68.1818V220.179ZM90.9091 220.179H98.4848V227.755H90.9091V220.179ZM98.4848 220.179H106.061V227.755H98.4848V220.179ZM136.364 220.179H143.939V227.755H136.364V220.179ZM143.939 220.179H151.515V227.755H143.939V220.179ZM159.091 220.179H166.667V227.755H159.091V220.179ZM166.667 220.179H174.242V227.755H166.667V220.179ZM196.97 220.179H204.545V227.755H196.97V220.179ZM204.545 220.179H212.121V227.755H204.545V220.179ZM212.121 220.179H219.697V227.755H212.121V220.179ZM219.697 220.179H227.273V227.755H219.697V220.179ZM227.273 220.179H234.848V227.755H227.273V220.179ZM234.848 220.179H242.424V227.755H234.848V220.179ZM0 227.755H7.57576V235.331H0V227.755ZM15.1515 227.755H22.7273V235.331H15.1515V227.755ZM22.7273 227.755H30.303V235.331H22.7273V227.755ZM30.303 227.755H37.8788V235.331H30.303V227.755ZM45.4545 227.755H53.0303V235.331H45.4545V227.755ZM68.1818 227.755H75.7576V235.331H68.1818V227.755ZM75.7576 227.755H83.3333V235.331H75.7576V227.755ZM106.061 227.755H113.636V235.331H106.061V227.755ZM113.636 227.755H121.212V235.331H113.636V227.755ZM121.212 227.755H128.788V235.331H121.212V227.755ZM128.788 227.755H136.364V235.331H128.788V227.755ZM136.364 227.755H143.939V235.331H136.364V227.755ZM143.939 227.755H151.515V235.331H143.939V227.755ZM174.242 227.755H181.818V235.331H174.242V227.755ZM181.818 227.755H189.394V235.331H181.818V227.755ZM204.545 227.755H212.121V235.331H204.545V227.755ZM212.121 227.755H219.697V235.331H212.121V227.755ZM227.273 227.755H234.848V235.331H227.273V227.755ZM0 235.331H7.57576V242.906H0V235.331ZM45.4545 235.331H53.0303V242.906H45.4545V235.331ZM60.6061 235.331H68.1818V242.906H60.6061V235.331ZM68.1818 235.331H75.7576V242.906H68.1818V235.331ZM75.7576 235.331H83.3333V242.906H75.7576V235.331ZM90.9091 235.331H98.4848V242.906H90.9091V235.331ZM113.636 235.331H121.212V242.906H113.636V235.331ZM121.212 235.331H128.788V242.906H121.212V235.331ZM128.788 235.331H136.364V242.906H128.788V235.331ZM136.364 235.331H143.939V242.906H136.364V235.331ZM143.939 235.331H151.515V242.906H143.939V235.331ZM151.515 235.331H159.091V242.906H151.515V235.331ZM159.091 235.331H166.667V242.906H159.091V235.331ZM166.667 235.331H174.242V242.906H166.667V235.331ZM174.242 235.331H181.818V242.906H174.242V235.331ZM181.818 235.331H189.394V242.906H181.818V235.331ZM189.394 235.331H196.97V242.906H189.394V235.331ZM196.97 235.331H204.545V242.906H196.97V235.331ZM0 242.906H7.57576V250.482H0V242.906ZM7.57576 242.906H15.1515V250.482H7.57576V242.906ZM15.1515 242.906H22.7273V250.482H15.1515V242.906ZM22.7273 242.906H30.303V250.482H22.7273V242.906ZM30.303 242.906H37.8788V250.482H30.303V242.906ZM37.8788 242.906H45.4545V250.482H37.8788V242.906ZM45.4545 242.906H53.0303V250.482H45.4545V242.906ZM68.1818 242.906H75.7576V250.482H68.1818V242.906ZM83.3333 242.906H90.9091V250.482H83.3333V242.906ZM121.212 242.906H128.788V250.482H121.212V242.906ZM151.515 242.906H159.091V250.482H151.515V242.906ZM166.667 242.906H174.242V250.482H166.667V242.906ZM174.242 242.906H181.818V250.482H174.242V242.906ZM181.818 242.906H189.394V250.482H181.818V242.906ZM189.394 242.906H196.97V250.482H189.394V242.906ZM227.273 242.906H234.848V250.482H227.273V242.906ZM242.424 242.906H250V250.482H242.424V242.906Z" fill="black"/>
</svg>
